<svg xmlns="http://www.w3.org/2000/svg" xmlns:xlink="http://www.w3.org/1999/xlink" xmlns:lucid="lucid" width="737.74" height="687.19"><g transform="translate(-508.6315976373892 -220)" lucid:page-tab-id="c_qRnjowSNnC"><path d="M0 0h1760v1360H0z" fill="#fff"/><path d="M528.63 386a6 6 0 0 1 6-6h685.74a6 6 0 0 1 6 6v495.2a6 6 0 0 1-6 6H534.63a6 6 0 0 1-6-6z" stroke="#fcce14" stroke-width="3" fill-opacity="0"/><path d="M622.5 240h515v60h-515z" fill="none"/><use xlink:href="#a" transform="matrix(1,0,0,1,622.5,240) translate(178.13580246913588 40.88888888888886)"/><path d="M753.24 418.56h230.8V563.4h-230.8V418.56z" fill="#876929"/><path d="M753.24 418.56h230.8V553.5h-230.8z" fill="#d9a741"/><path d="M817.28 436.72h24.58V538.5h-24.58V436.7zM856.33 436.72h24.58V538.5h-24.57V436.7zM895.36 436.72h24.58V538.5h-24.58V436.7zM781.72 465.53v44.15l21.07-22.08-21.08-22.07zM934.43 465.53v44.15l21.07-22.08-21.07-22.07z" fill="#fff"/><use xlink:href="#b" transform="matrix(1,0,0,1,753.2352076706737,563.3975387542514) translate(62.16666666666669 28.444444444444436)"/><path d="M548.63 438.52v59l63.47 26.05 63.47-26.04V482.8l-53.95-5.53v-33.22l53.95-5.53V423.8l-63.47-26.05-63.47 26.05v14.72z" fill="#876929"/><path d="M548.66 482.77l63.43 15.62v25.16l-63.44-26.03v-14.76z" fill="#876929"/><path d="M556.73 500.84l-8.1-3.3v-73.77l8.1-3.3v80.37z" fill="#876929"/><path d="M621.6 477.28l-64.88 7.48v-48.22l64.9 7.52v33.22zM675.57 438.56L612.1 422.9v-25.15l63.47 26.08v14.73zM675.53 482.78L612.1 498.4v25.16l63.43-26.06v-14.72z" fill="#d9a741"/><path d="M588.72 474.15l23.37 2.4v-31.92l-23.38 2.43v27.1zM565.17 471.76l15.17 1.55v-25.35l-15.17 1.58v22.23z" fill="#876929"/><path d="M556.74 436.54l55.37-13.64 63.45 15.65-53.94 5.5-64.86-7.5z" fill="#624a1e"/><path d="M556.72 484.75l55.36 13.66 63.44-15.6-53.94-5.53-64.86 7.48z" fill="#fad791"/><path d="M675.53 469.97l-63.43 6.57v-31.9l63.43 6.63v18.7z" fill="#d9a741"/><use xlink:href="#c" transform="matrix(1,0,0,1,548.6315976373892,523.5707622301795) translate(2.435185185185219 26.666666666666657)"/><use xlink:href="#d" transform="matrix(1,0,0,1,548.6315976373892,523.5707622301795) translate(28.314814814814824 66.66666666666664)"/><path d="M753.24 658.56h230.8V803.4h-230.8V658.56z" fill="#876929"/><path d="M753.24 658.56h230.8V793.5h-230.8z" fill="#d9a741"/><path d="M817.28 676.72h24.58V778.5h-24.58V676.7zM856.33 676.72h24.58V778.5h-24.57V676.7zM895.36 676.72h24.58V778.5h-24.58V676.7zM781.72 705.53v44.15l21.07-22.08-21.08-22.07zM934.43 705.53v44.15l21.07-22.08-21.07-22.07z" fill="#fff"/><use xlink:href="#e" transform="matrix(1,0,0,1,753.2352076706737,803.3975387542514) translate(22.759259259259295 28.444444444444436)"/><use xlink:href="#f" transform="matrix(1,0,0,1,753.2352076706737,803.3975387542514) translate(117.4753086419753 28.444444444444436)"/><use xlink:href="#g" transform="matrix(1,0,0,1,753.2352076706737,803.3975387542514) translate(62.16666666666669 71.11111111111109)"/><path d="M752.74 739.42h-33.5a6 6 0 0 1-6-6V506.98a6 6 0 0 1 6-6h17.6" stroke="#3a414a" fill="none"/><path d="M753.24 739.92h-.52v-1h.52z" stroke="#3a414a" stroke-width=".05" fill="#3a414a"/><path d="M751.62 500.98l-14.27 4.63v-9.26z" stroke="#3a414a" fill="#3a414a"/><defs><path fill="#3a414a" d="M140-251c80 0 125 45 125 126 0 70-33 111-92 124 6 28 34 38 68 31l-1 36C177 83 129 55 120 2 51-6 15-50 15-125c0-81 44-126 125-126zm-1 214c52 0 73-35 73-88 0-50-21-86-72-86-52 0-73 35-73 86s22 88 72 88" id="h"/><path fill="#3a414a" d="M85 4C-2 5 27-109 22-190h50c7 57-23 150 33 157 60-5 35-97 40-157h50l1 190h-47c-2-12 1-28-3-38-12 25-28 42-61 42" id="i"/><path fill="#3a414a" d="M185-48c-13 30-37 53-82 52C43 2 14-33 14-96s30-98 90-98c62 0 83 45 84 108H66c0 31 8 55 39 56 18 0 30-7 34-22zm-45-69c5-46-57-63-70-21-2 6-4 13-4 21h74" id="j"/><g id="a"><use transform="matrix(0.1419753086419752,0,0,0.1419753086419752,0,0)" xlink:href="#h"/><use transform="matrix(0.1419753086419752,0,0,0.1419753086419752,39.75308641975305,0)" xlink:href="#i"/><use transform="matrix(0.1419753086419752,0,0,0.1419753086419752,70.84567901234561,0)" xlink:href="#j"/><use transform="matrix(0.1419753086419752,0,0,0.1419753086419752,99.24074074074065,0)" xlink:href="#i"/><use transform="matrix(0.1419753086419752,0,0,0.1419753086419752,130.3333333333332,0)" xlink:href="#j"/></g><path fill="#3a414a" d="M140-251c81 0 123 46 123 126C263-53 228-8 163 1c7 30 30 48 69 40v23c-55 16-95-15-103-61C56-3 17-48 17-125c0-80 42-126 123-126zm0 227c63 0 89-41 89-101s-29-99-89-99c-61 0-89 39-89 99S79-25 140-24" id="k"/><path fill="#3a414a" d="M84 4C-5 8 30-112 23-190h32v120c0 31 7 50 39 49 72-2 45-101 50-169h31l1 190h-30c-1-10 1-25-2-33-11 22-28 36-60 37" id="l"/><path fill="#3a414a" d="M100-194c63 0 86 42 84 106H49c0 40 14 67 53 68 26 1 43-12 49-29l28 8c-11 28-37 45-77 45C44 4 14-33 15-96c1-61 26-98 85-98zm52 81c6-60-76-77-97-28-3 7-6 17-6 28h103" id="m"/><g id="b"><use transform="matrix(0.0987654320987654,0,0,0.0987654320987654,0,0)" xlink:href="#k"/><use transform="matrix(0.0987654320987654,0,0,0.0987654320987654,27.654320987654312,0)" xlink:href="#l"/><use transform="matrix(0.0987654320987654,0,0,0.0987654320987654,47.40740740740739,0)" xlink:href="#m"/><use transform="matrix(0.0987654320987654,0,0,0.0987654320987654,67.16049382716047,0)" xlink:href="#l"/><use transform="matrix(0.0987654320987654,0,0,0.0987654320987654,86.91358024691354,0)" xlink:href="#m"/></g><path fill="#3a414a" d="M205 0l-28-72H64L36 0H1l101-248h38L239 0h-34zm-38-99l-47-123c-12 45-31 82-46 123h93" id="n"/><path fill="#3a414a" d="M210-169c-67 3-38 105-44 169h-31v-121c0-29-5-50-35-48C34-165 62-65 56 0H25l-1-190h30c1 10-1 24 2 32 10-44 99-50 107 0 11-21 27-35 58-36 85-2 47 119 55 194h-31v-121c0-29-5-49-35-48" id="o"/><path fill="#3a414a" d="M141-36C126-15 110 5 73 4 37 3 15-17 15-53c-1-64 63-63 125-63 3-35-9-54-41-54-24 1-41 7-42 31l-33-3c5-37 33-52 76-52 45 0 72 20 72 64v82c-1 20 7 32 28 27v20c-31 9-61-2-59-35zM48-53c0 20 12 33 32 33 41-3 63-29 60-74-43 2-92-5-92 41" id="p"/><path fill="#3a414a" d="M9 0v-24l116-142H16v-24h144v24L44-24h123V0H9" id="q"/><path fill="#3a414a" d="M100-194c62-1 85 37 85 99 1 63-27 99-86 99S16-35 15-95c0-66 28-99 85-99zM99-20c44 1 53-31 53-75 0-43-8-75-51-75s-53 32-53 75 10 74 51 75" id="r"/><path fill="#3a414a" d="M117-194c89-4 53 116 60 194h-32v-121c0-31-8-49-39-48C34-167 62-67 57 0H25l-1-190h30c1 10-1 24 2 32 11-22 29-35 61-36" id="s"/><g id="c"><use transform="matrix(0.09259259259259256,0,0,0.09259259259259256,0,0)" xlink:href="#n"/><use transform="matrix(0.09259259259259256,0,0,0.09259259259259256,22.222222222222214,0)" xlink:href="#o"/><use transform="matrix(0.09259259259259256,0,0,0.09259259259259256,49.90740740740739,0)" xlink:href="#p"/><use transform="matrix(0.09259259259259256,0,0,0.09259259259259256,68.4259259259259,0)" xlink:href="#q"/><use transform="matrix(0.09259259259259256,0,0,0.09259259259259256,85.09259259259255,0)" xlink:href="#r"/><use transform="matrix(0.09259259259259256,0,0,0.09259259259259256,103.61111111111106,0)" xlink:href="#s"/></g><path fill="#3a414a" d="M185-189c-5-48-123-54-124 2 14 75 158 14 163 119 3 78-121 87-175 55-17-10-28-26-33-46l33-7c5 56 141 63 141-1 0-78-155-14-162-118-5-82 145-84 179-34 5 7 8 16 11 25" id="t"/><g id="d"><use transform="matrix(0.09259259259259256,0,0,0.09259259259259256,0,0)" xlink:href="#t"/><use transform="matrix(0.09259259259259256,0,0,0.09259259259259256,22.222222222222214,0)" xlink:href="#k"/><use transform="matrix(0.09259259259259256,0,0,0.09259259259259256,48.14814814814813,0)" xlink:href="#t"/></g><path fill="#3a414a" d="M30-248c118-7 216 8 213 122C240-48 200 0 122 0H30v-248zM63-27c89 8 146-16 146-99s-60-101-146-95v194" id="u"/><path fill="#3a414a" d="M85-194c31 0 48 13 60 33l-1-100h32l1 261h-30c-2-10 0-23-3-31C134-8 116 4 85 4 32 4 16-35 15-94c0-66 23-100 70-100zm9 24c-40 0-46 34-46 75 0 40 6 74 45 74 42 0 51-32 51-76 0-42-9-74-50-73" id="v"/><g id="e"><use transform="matrix(0.0987654320987654,0,0,0.0987654320987654,0,0)" xlink:href="#u"/><use transform="matrix(0.0987654320987654,0,0,0.0987654320987654,25.58024691358024,0)" xlink:href="#m"/><use transform="matrix(0.0987654320987654,0,0,0.0987654320987654,45.333333333333314,0)" xlink:href="#p"/><use transform="matrix(0.0987654320987654,0,0,0.0987654320987654,65.08641975308639,0)" xlink:href="#v"/></g><path fill="#3a414a" d="M30 0v-248h33v221h125V0H30" id="w"/><path fill="#3a414a" d="M59-47c-2 24 18 29 38 22v24C64 9 27 4 27-40v-127H5v-23h24l9-43h21v43h35v23H59v120" id="x"/><path fill="#3a414a" d="M114-163C36-179 61-72 57 0H25l-1-190h30c1 12-1 29 2 39 6-27 23-49 58-41v29" id="y"/><g id="f"><use transform="matrix(0.0987654320987654,0,0,0.0987654320987654,0,0)" xlink:href="#w"/><use transform="matrix(0.0987654320987654,0,0,0.0987654320987654,19.753086419753078,0)" xlink:href="#m"/><use transform="matrix(0.0987654320987654,0,0,0.0987654320987654,39.506172839506156,0)" xlink:href="#x"/><use transform="matrix(0.0987654320987654,0,0,0.0987654320987654,49.382716049382694,0)" xlink:href="#x"/><use transform="matrix(0.0987654320987654,0,0,0.0987654320987654,59.25925925925923,0)" xlink:href="#m"/><use transform="matrix(0.0987654320987654,0,0,0.0987654320987654,79.01234567901231,0)" xlink:href="#y"/></g><g id="g"><use transform="matrix(0.0987654320987654,0,0,0.0987654320987654,0,0)" xlink:href="#k"/><use transform="matrix(0.0987654320987654,0,0,0.0987654320987654,27.654320987654312,0)" xlink:href="#l"/><use transform="matrix(0.0987654320987654,0,0,0.0987654320987654,47.40740740740739,0)" xlink:href="#m"/><use transform="matrix(0.0987654320987654,0,0,0.0987654320987654,67.16049382716047,0)" xlink:href="#l"/><use transform="matrix(0.0987654320987654,0,0,0.0987654320987654,86.91358024691354,0)" xlink:href="#m"/></g></defs></g></svg>