<svg xmlns="http://www.w3.org/2000/svg" xmlns:xlink="http://www.w3.org/1999/xlink" xmlns:lucid="lucid" width="1394.69" height="900"><g transform="translate(9.407407407407405 -20)" lucid:page-tab-id="uLvRMWXpC.Nm"><path d="M0 0h1390.57v1074.53H0z" fill="#fff"/><path d="M585.28 126a6 6 0 0 1 6-6h768a6 6 0 0 1 6 6v768a6 6 0 0 1-6 6h-768a6 6 0 0 1-6-6z" stroke="#54c45e" stroke-width="3" fill-opacity="0"/><path d="M185.28 126a6 6 0 0 1 6-6h368a6 6 0 0 1 6 6v768a6 6 0 0 1-6 6h-368a6 6 0 0 1-6-6z" stroke="#e81313" stroke-width="3" fill-opacity="0"/><path d="M689.27 523.42l58 8.62v5.1c0 7.53-26 13.63-58 13.63s-58-6.1-58-13.64v-5.53z" fill="#8c3123"/><path d="M689.3 560.13c24.2 0 44.94-3.54 53.58-8.5l2.88-4.78 1.15-4.4v5.45l-19 81c0 5.08-17.28 9.1-38.6 9.1s-38.6-4.02-38.6-9.1l-19-81v-5.35l4.37 9.27c8.75 4.87 29.26 8.3 53.23 8.3z" fill="#8c3123"/><path d="M689.28 518c32 0 58 6.12 58 13.62 0 7.5-26 13.57-58 13.57s-58-6.02-58-13.58c0-7.56 26-13.62 58-13.62z" fill="#e05243"/><path d="M689.28 554.6c29.85 0 54.4-5.2 57.62-12.06l-19.02 81c0 5.05-17.28 9.1-38.6 9.1s-38.6-4.05-38.6-9.1l-19.03-81c3.23 6.85 27.78 12.07 57.63 12.07z" fill="#e05243"/><path d="M675.63 562.38h25.1v24.96h-25.1v-24.96zM668.04 596.17c6.83 0 12.38 5.5 12.38 12.3 0 6.8-5.55 12.3-12.38 12.3-6.84 0-12.4-5.5-12.4-12.3 0-6.8 5.56-12.3 12.4-12.3zM720.1 620.2h-24.8l12.4-22.94 12.4 22.94z" fill="#fff"/><use xlink:href="#a" transform="matrix(1,0,0,1,631.2830188679245,638) translate(25.28395061728395 17.77777777777778)"/><path d="M1289.27 517.74l58 8.6v5.1c0 7.55-26 13.64-58 13.64s-58-6.1-58-13.64v-5.53z" fill="#8c3123"/><path d="M1289.3 554.44c24.2 0 44.94-3.53 53.58-8.5l2.88-4.78 1.15-4.4v5.45l-19 81.02c0 5.07-17.28 9.08-38.6 9.08s-38.6-4-38.6-9.08l-19-81v-5.36l4.37 9.27c8.75 4.87 29.26 8.3 53.23 8.3z" fill="#8c3123"/><path d="M1289.28 512.3c32 0 58 6.13 58 13.64 0 7.5-26 13.56-58 13.56s-58-6-58-13.56c0-7.56 26-13.63 58-13.63z" fill="#e05243"/><path d="M1289.28 548.93c29.85 0 54.4-5.23 57.62-12.08l-19.02 81c0 5.06-17.28 9.1-38.6 9.1s-38.6-4.04-38.6-9.1l-19.03-81c3.23 6.85 27.78 12.08 57.63 12.08z" fill="#e05243"/><use xlink:href="#b" transform="matrix(1,0,0,1,1231.2830188679245,632.3120238797846) translate(7.5061728395061635 17.77777777777778)"/><use xlink:href="#c" transform="matrix(1,0,0,1,1231.2830188679245,632.3120238797846) translate(25.28395061728395 44.44444444444444)"/><path d="M738 588h4.93m4.93 0h9.85m4.94 0h9.86m4.93 0h9.85m4.93 0h9.87m4.93 0h9.85m4.93 0h9.86m4.93 0h9.85m4.93 0h9.86m4.94 0H876m4.92 0h9.86m4.93 0h9.86m4.93 0h9.85m4.92 0h9.86m4.93 0H945" stroke="#3a414a" fill="none"/><path d="M738 588.5h-.62l.24-1h.4z" stroke="#3a414a" stroke-width=".05" fill="#3a414a"/><path d="M959.75 588l-14.26 4.64v-9.28z" stroke="#3a414a" fill="#3a414a"/><path d="M1067.4 580.75c-.48-.6-.84-1.22-1.2-1.83-2.04-3.88-3.12-7.45-3.84-11.73-3-14.2-10.92-25.1-23.4-32.45-8.76-5.3-17.64-8.77-28.08-7.44-13.92 1.74-25.68 6.94-33.84 18.98-4.68 7.14-7.92 13.67-10.68 21.83-2.52 7.04-2.28 14.7-5.4 21.53-.72 1.43-1.44 2.55-2.28 3.87-2.16 3.37-5.04 6.43-6.6 10-3.84 8.87-1.68 13.97 6.84 18.36.96.4 1.8.82 2.76 1.22 9.96 3.98 33.36 8.98 47.76 3.47 3.6-1.12 6.48-2.34 9.72-4.18 11.52-6.12 23.04-12.44 34.56-18.67 5.4-2.75 9.72-5.9 13.8-10.5 3.72-4.3 3.6-8.26-.12-12.45z" fill="#4b612c"/><path d="M1026.73 532.25c6.4 2.3 11.53 5.26 16.76 9.84 3.62 2.86 13.45 13 15.7 25.6.2 1.9.42 3.82.74 5.64.32.86.74 1.52 1.28 2.2l1.17 2.95s2.13 3.43 3.3 5.06c1.5 2.1 2.03 4.2.43 6.3-3.74 4.78-8.54 8.13-14.4 11.18l.52-6.2-3.84-1.15c-1.5 3.33-.53 5.8 3.1 7.63-3.42 1.8-6.5 3.44-9.5 4.97-9.3 4.97-18.47 10.03-27.76 14.9-7.16 3.73-14.1 5.26-22.1 5.07-9.3-.4-17.2-1.9-25.95-4.97-3.75-1.44-6.85-7.36-5.67-11.08.53-1.82 2.45-2.97 4.27-2.58 6.5.66 13.03 1.43 19.54 2.2 7.15.85 14.4 2.48 21.57 2.48 8.23 0 16.02-2.5 23.7-5.64-2.34.2-4.7.3-6.93.48-6.5.48-12.92.67-19.32 1.53-8 1.04-15.5-.68-23.07-2.6-6.2-1.33-11.1-4.67-14.63-9.93-1.38-2.1-2.24-4.4-1.17-6.6.85.77 1.8 2.2 2.46 2.1.74-.1 2.02-1.33 2.45-2.38.95-2.6 1.6-5.26 2.34-7.94 1.17-5.06 2.46-9.36 4.16-14.33 3.3-8.4 6.94-16.82 12.6-24.08 2.14-2.86 4.17-5.16 6.94-7.55 3.3-2.96 7.7-3.9 12.07-4.4 5.03-.47 10.15-.18 15.4-.28.2 0 .52.3.84.4z" fill="#759c3e"/><path d="M1059.2 567.72c-1.05-2.36-2.07-4.26-3.38-6.48-1.2-1.66-2.46-2.9-4.15-4.07-7.54-5.23-17.88-3.33-23.1 4.16-4.27 5.97-6.22 12.77-7.36 19.85-.33 2.13-.58 4.26-.96 7-2.25-3.85-3.27-7.64-3.3-12.1-.43-8.55.8-16.83 6.18-23.95 3.8-5.1 8.34-9.26 15-10.18 1.86-.1 3.47-.05 5.33.18 2.03 1.76 4.45 3.2 6 5.28 4.42 5.42 7.26 10.8 9.33 17.45.22.97.34 1.85.43 2.87z" fill="#b7ca9d"/><path d="M1026.7 532.26c-7.38 2.03-11.67 7.5-15.18 13.8-5.05 9-8.74 18.54-8.54 29.02.03 6.35 1.2 11.7 3.76 17.47.26.57.44 1.2.8 2.16-2.72.13-5.1-1.07-6.56-3.36-2.8-4.06-4.02-8.32-3.78-13.28.3-13.53 2.92-26.55 11.8-37.48 2.05-2.4 3.94-4.38 6.36-6.48 2.4-2.16 5.2-3.1 8.4-2.92z" fill="#b7ca9d"/><path d="M1062.38 578.5c0 3.35-2.3 5.13-4.53 6.9-11.27 9-24.38 13.72-38.33 16.3-6.18 1.14-12.46 2.16-18.74 2.92-7.58.9-14.7-1.75-21.9-3.62-2.95-.76-5.8-1.7-8.86-2.58 0-.32 0-.6.1-.93 1.38-.13 2.58-.13 3.97 0 5.8.98 11.53 2.47 17.35 3.06 5.63.58 10.53.58 16.16 0 10.54-1.1 19.4-3.13 29.38-6.87 5.82-2.32 10.53-4.63 15.88-7.73 4.07-2.28 7.85-5.15 8.3-10.4zM1048.42 593.7c2.8-1.65 5.5-3.46 8.4-4.94 1.32-.4 2.5-.57 3.9-.52l.26.68-8.73 5.9z" fill="#b7ca9d"/><use xlink:href="#b" transform="matrix(1,0,0,1,950.2830188679244,629) translate(9.506172839506164 17.77777777777778)"/><use xlink:href="#d" transform="matrix(1,0,0,1,950.2830188679244,629) translate(41.543209876543216 44.44444444444444)"/><path d="M425.85 627.74c3.56 0 6.43 2.87 6.43 6.42v101.72c0 3.55-2.87 6.42-6.43 6.42h-74.13c-3.57 0-6.44-2.87-6.44-6.42V634.05c0-3.56 2.87-6.42 6.44-6.42h74.13z" fill="#7d7c7c"/><path d="M425.85 622.43c3.56 0 6.43 2.86 6.43 6.42v101.7c0 3.57-2.87 6.43-6.43 6.43h-74.13c-3.57 0-6.44-2.86-6.44-6.42V628.73c0-3.55 2.87-6.42 6.44-6.42h74.13z" fill="#d2d3d3"/><path d="M364 647.24l-5.97-6.5-6.58 6.6 12.43 12.5 20.97-21.1-4.78-4.88L364 647.24zM364 677.18l-5.97-6.53-6.58 6.63 12.43 12.48 20.97-21.1-4.78-4.9L364 677.18z" fill="#759c3e"/><path d="M364.7 707.1l-12.8-11.58h6.24l9.73 9.32 10.2-9.32h5.77l-12.8 11.6 13.47 12.24h-6.4l-10.5-9.85-10.83 9.86h-5.68z" fill="#e05243"/><use xlink:href="#e" transform="matrix(1,0,0,1,345.2830188679245,742.3120238797846) translate(20.135802469135804 17.77777777777778)"/><use xlink:href="#f" transform="matrix(1,0,0,1,345.2830188679245,742.3120238797846) translate(15.166666666666664 44.44444444444444)"/><path d="M62.44 601.78H41.7c-.95 0-1.7-.76-1.7-1.7v-2.54c0-9.48 6.23-17.44 15.5-19.67.4-.1.8-.04 1.2.17 2.73 1.46 5.68 1.46 8.4 0 .4-.2.8-.26 1.22-.17 2.43.6 4.43 1.47 6.5 2.85l-1.9 2.83c-1.55-1-3-1.68-4.8-2.15-3.45 1.58-7 1.58-10.43 0-7.4 2.06-12.3 8.5-12.3 16.14v.84h19.04z" stroke="#fff" stroke-opacity="0" fill="#232f3e"/><path d="M60.88 582.46c-6.17 0-11.17-5-11.17-11.14 0-6.16 5-11.15 11.18-11.15 6.16-.07 11.2 4.88 11.26 11 .04 4.27-2.1 7.9-5.86 9.9-1.72.97-3.4 1.4-5.4 1.4zm0-18.9c-4.3 0-7.83 3.45-7.85 7.76 0 2.92 1.48 5.4 4.06 6.8 2.43 1.3 5.12 1.3 7.57 0 2.6-1.4 4.1-3.95 4.06-6.9-.05-4.27-3.57-7.68-7.85-7.64zM118.32 601.78H97.57v-3.4h19.04v-.83c0-7.67-4.9-14.1-12.25-16.17-3.45 1.6-7 1.6-10.46 0-1.82.5-3.3 1.2-4.84 2.28l-1.94-2.8c2.07-1.44 4.08-2.35 6.5-2.97.44-.1.86-.06 1.26.16 2.7 1.46 5.7 1.46 8.42 0 .4-.22.8-.27 1.2-.17 9.25 2.22 15.5 10.16 15.5 19.65v2.53c0 .94-.76 1.68-1.68 1.7z" stroke="#fff" stroke-opacity="0" fill="#232f3e"/><path d="M99.08 582.46c-6.2 0-11.23-5.05-11.23-11.25S92.9 560 99.13 560c6.2 0 11.23 5.05 11.23 11.25 0 4.23-2.14 7.82-5.85 9.84-1.75.94-3.44 1.36-5.42 1.36zm0-18.9c-4.3 0-7.8 3.45-7.83 7.76-.02 2.92 1.46 5.42 4.05 6.8 2.43 1.3 5.13 1.3 7.6 0 2.62-1.4 4.13-3.97 4.08-6.96-.1-4.26-3.62-7.68-7.9-7.6zM107.2 640H52.73c-.92 0-1.67-.75-1.67-1.7v-3.6c-.06-13.1 8.6-24.1 21.32-27.18.46-.13.86-.06 1.27.13 4.04 2.18 8.5 2.18 12.6 0 .34-.2.75-.26 1.2-.13 12.78 3.06 21.45 14.06 21.4 27.18v3.6c0 .95-.76 1.7-1.68 1.7zm-52.72-3.38h50.97v-1.92c0-11.27-7.28-20.74-18.2-23.66-4.8 2.3-9.83 2.3-14.62 0-10.93 2.92-18.15 12.4-18.15 23.66z" stroke="#fff" stroke-opacity="0" fill="#232f3e"/><path d="M80.02 612.64c-2.7 0-5-.58-7.4-1.86-7.4-4.07-10.13-13.34-6.1-20.77 4.1-7.4 13.38-10.12 20.83-6.08 7.42 4.07 10.15 13.34 6.1 20.77-1.47 2.68-3.4 4.6-6.1 6.08-2.36 1.28-4.66 1.86-7.33 1.86zm0-26.76c-4.44-.06-8.28 2.17-10.42 6.1-3.07 5.64-.98 12.74 4.7 15.83 3.67 1.97 7.7 1.97 11.4 0 3.95-2.13 6.22-5.95 6.16-10.42-.1-6.42-5.4-11.6-11.84-11.5z" stroke="#fff" stroke-opacity="0" fill="#232f3e"/><path d="M118.78 601.78H79.06c-.68 0-1.23-.54-1.23-1.23v-2.64c-.04-9.53 6.3-17.56 15.56-19.8.33-.1.63-.06.92.08 2.95 1.6 6.2 1.6 9.2 0 .25-.14.54-.2.88-.1 9.32 2.24 15.64 10.27 15.6 19.83v2.65c0 .7-.55 1.23-1.22 1.23zm-38.46-2.47h37.2v-1.4c0-8.2-5.32-15.1-13.3-17.25-3.5 1.7-7.16 1.7-10.66 0-7.97 2.14-13.24 9.05-13.24 17.26z" stroke="#fff" stroke-opacity="0" stroke-width=".73" fill="#fff" fill-opacity="0"/><path d="M80.94 601.78H41.22c-.67 0-1.22-.54-1.22-1.23v-2.64c-.04-9.53 6.28-17.56 15.56-19.8.34-.1.63-.06.93.08 2.94 1.6 6.2 1.6 9.18 0 .25-.14.55-.2.88-.1 9.32 2.24 15.65 10.27 15.6 19.83v2.65c0 .7-.54 1.23-1.22 1.23zM42.5 599.3h37.18v-1.4c0-8.2-5.3-15.1-13.28-17.25-3.5 1.7-7.17 1.7-10.67 0-7.97 2.14-13.24 9.05-13.24 17.26z" stroke="#fff" stroke-opacity="0" stroke-width=".73" fill="#fff" fill-opacity="0"/><use xlink:href="#g" transform="matrix(1,0,0,1,10,649) translate(2.5925925925925952 17.77777777777778)"/><use xlink:href="#h" transform="matrix(1,0,0,1,10,649) translate(58.51851851851851 17.77777777777778)"/><use xlink:href="#i" transform="matrix(1,0,0,1,10,649) translate(41.04938271604939 44.44444444444444)"/><path d="M425.85 445.43c3.56 0 6.43 2.87 6.43 6.42v101.72c0 3.55-2.87 6.42-6.43 6.42h-74.13c-3.57 0-6.44-2.88-6.44-6.43V451.74c0-3.56 2.87-6.42 6.44-6.42h74.13z" fill="#7d7c7c"/><path d="M425.85 440.1c3.56 0 6.43 2.88 6.43 6.44v101.7c0 3.57-2.87 6.43-6.43 6.43h-74.13c-3.57 0-6.44-2.86-6.44-6.42V446.42c0-3.55 2.87-6.42 6.44-6.42h74.13z" fill="#d2d3d3"/><path d="M364 464.92l-5.97-6.5-6.58 6.6 12.43 12.5 20.97-21.1-4.78-4.88L364 464.92zM364 494.87l-5.97-6.53-6.58 6.63 12.43 12.48 20.97-21.1-4.78-4.9L364 494.87z" fill="#759c3e"/><path d="M364.7 524.8l-12.8-11.6h6.24l9.73 9.33 10.2-9.32h5.77l-12.8 11.6 13.47 12.24h-6.4l-10.5-9.84-10.83 9.84h-5.68z" fill="#e05243"/><use xlink:href="#j" transform="matrix(1,0,0,1,345.2830188679245,560) translate(0.9691358024691326 17.77777777777778)"/><use xlink:href="#f" transform="matrix(1,0,0,1,345.2830188679245,560) translate(15.166666666666664 44.44444444444444)"/><path d="M120.5 600h106.14a6 6 0 0 0 6-6v-78a6 6 0 0 1 6-6h90.26" stroke="#3a414a" fill="none"/><path d="M120.5 600.5h-.5v-1h.5z" stroke="#3a414a" stroke-width=".05" fill="#3a414a"/><path d="M343.66 510l-14.26 4.64v-9.28z" stroke="#3a414a" fill="#3a414a"/><path d="M120.5 600h106.14a6 6 0 0 1 6 6v80.3a6 6 0 0 0 6 6h90.26" stroke="#3a414a" fill="none"/><path d="M120.5 600.5h-.5v-1h.5z" stroke="#3a414a" stroke-width=".05" fill="#3a414a"/><path d="M343.66 692.3l-14.26 4.65v-9.27z" stroke="#3a414a" fill="#3a414a"/><path d="M872.17 365.5l-10.95-1.65v-16l14.8 4.14-3.85 13.5z" fill="#759c3e"/><path d="M872.93 367.57l-21.65 1.95v-16.68l9.94-4.98 11.7 19.7zM929.4 365.5l10.95-1.65v-16L925.53 352l3.87 13.5z" fill="#4b612c"/><path d="M928.62 367.57l21.65 1.95v-16.68l-9.9-4.98-11.75 19.7z" fill="#759c3e"/><path d="M879.84 338.44l-11.34 23.28-17.22 5.16v14.88l19.95 43.08L900.78 448l20.5-25.8v-72L900.8 328l-20.94 10.44z" fill="#4b612c"/><path d="M950.28 381.75v-14.87l-17.22-5.16-11.34-23.28L900.78 328v120l29.5-23.17 20-43.08z" fill="#759c3e"/><use xlink:href="#k" transform="matrix(1,0,0,1,851.2830188679245,448) translate(24.623456790123463 17.77777777777778)"/><use xlink:href="#l" transform="matrix(1,0,0,1,851.2830188679245,448) translate(25.45679012345679 44.44444444444444)"/><path d="M858.3 398h-4.94m-4.94 0h-9.88m-4.94 0h-9.88m-4.94 0h-9.88m-4.94 0h-9.88m-4.94 0h-9.88m-4.94 0h-9.88m-4.94 0h-9.88m-4.94 0h-9.88m-4.94 0h-9.88m-4.94 0h-9.88m-4.94 0h-4.94l-.94.07-.9.22-.88.35-.8.5-.72.6-.6.72-.5.8-.36.88-.22.9v4.7m0 4.7l-.02 9.38m0 4.7v9.38m0 4.7l-.02 9.4m0 4.7v9.37m0 4.7l-.02 9.38m0 4.7v9.38m0 4.7l-.02 4.7" stroke="#3a414a" fill="none"/><path d="M859.04 398.5h-.75v-1h.27z" stroke="#3a414a" stroke-width=".05" fill="#3a414a"/><path d="M689.28 516.38l-4.63-14.26h9.27z" stroke="#3a414a" fill="#3a414a"/><use xlink:href="#m" transform="matrix(1,0,0,1,702.5728999357287,372.66666666666663) translate(0 14.222222222222223)"/><use xlink:href="#n" transform="matrix(1,0,0,1,702.5728999357287,372.66666666666663) translate(39.50617283950618 14.222222222222223)"/><path d="M1069.12 582.3h5.2m5.18 0h10.37m5.18 0h10.38m5.18 0h10.4m5.17 0h10.37m5.2 0h10.36m5.2 0h10.36m5.2 0h10.36m5.2 0h10.36m5.2 0h10.36m5.2 0h5.17" stroke="#3a414a" fill="none"/><path d="M1069.14 582.8h-.25l-.25-.45-.42-.54h.9z" stroke="#3a414a" stroke-width=".05" fill="#3a414a"/><path d="M1239.48 582.3l-14.27 4.65v-9.27z" stroke="#3a414a" fill="#3a414a"/><path d="M432.78 503.67h97.9a6 6 0 0 1 6 6V582a6 6 0 0 0 6 6h82.03" stroke="#3a414a" fill="none"/><path d="M432.8 504.17h-.52v-1h.52z" stroke="#3a414a" stroke-width=".05" fill="#3a414a"/><path d="M639.48 588l-14.27 4.64v-9.28z" stroke="#3a414a" fill="#3a414a"/><path d="M432.78 685.98h97.9a6 6 0 0 0 6-6V594a6 6 0 0 1 6-6h82.03" stroke="#3a414a" fill="none"/><path d="M432.8 686.48h-.52v-1h.52z" stroke="#3a414a" stroke-width=".05" fill="#3a414a"/><path d="M639.48 588l-14.27 4.64v-9.28z" stroke="#3a414a" fill="#3a414a"/><path d="M625.28 120h120v120h-120V120z" stroke="#fff" stroke-opacity="0" stroke-width="2" fill="#3f8624"/><path d="M723.57 184.06c-.46-2.48-3.3-4.25-5.3-5.53-.6-.4-2.3-1.04-2.44-1.6 0-.4 0-.8.15-1.2l1.6-11.46 1.4-10.17c.37-3.05-1.08-5.13-3.6-6.9-5.15-3.6-11.9-5.04-17.95-6-7.98-1.28-14.95-1.52-23-.72-7.3.48-13.34 1.92-20.1 4.8-3.36 1.6-7.9 4.1-7.27 8.42 1.53 12.97 3.45 25.95 5.2 38.93.78 5.93 1.62 11.86 2.4 17.8.3 2.47 1.67 4.4 3.97 5.35 4.9 2.65 11.04 3.45 16.64 3.93 7.74.73 14.34.5 22-.95 4.6-.8 13.2-2.25 13.96-8 .92-7.14 1.9-14.27 2.83-21.4l.4-2.17c2.6.64 10.03 2 9.1-3.12zm-40.63-40.86c9.66 0 20.62 1.12 29.2 5.85 1.4.72 4.45 2.32 3.53 4.33-.92 1.92-3.83 2.88-5.6 3.6-2.6.96-4.98 1.6-7.74 2.16-11.96 2.4-22.54 2.65-34.65.73-5.44-.57-9.97-1.93-14.87-4.33-1.14-.72-3.06-1.84-2.52-3.45.38-.9 1-1.53 1.84-2 3.75-2.4 7.2-3.85 11.57-4.66 6.6-1.6 12.4-2.32 19.24-2.24zm25.14 67.46c-.3 1.84-3.37 2.8-4.83 3.28-3.22 1.12-6.05 1.76-9.43 2.16-7.43.97-13.87.97-21.4 0-4.66-.4-8.57-1.44-12.8-3.52-1.14-.48-1.83-1.52-1.9-2.72-1.62-12.74-3.38-25.4-5.14-38.06l-1.84-13.78c3.83 2.1 7.36 3.37 11.65 4.1 4.67.95 8.58 1.43 13.33 1.75 9.2.64 17.1.24 26.22-1.44 4.83-.72 8.82-2.08 13.1-4.4l-3.36 25.07c-8.6-2.8-15.65-5.6-23.7-9.54-.4-.16-.7-.32-1-.48-.46-.32-.3-.16-.54-.64-.38-.96-.46-1.6-1.3-2.4-.77-.56-1.6-.8-2.53-.72-2 .08-3.53 1.84-3.37 3.84.15 1.93 1.9 3.45 3.9 3.3.54-.1 1-.25 1.62-.5.6-.15.6-.15 1.22.17 8.2 4 15.34 6.97 24 9.85 1.23.4 1.23 0 1.23 1.04-.08.8-.16 1.53-.3 2.33l-1 7.6zm-24.68-37.9c0 .48-.62.4-.77.16-.23-.32.77-.72.77-.16zm31.5 11.22l.47-3.53c1.6.97 4.3 2.33 5.06 4.1-1.6.63-4.07-.17-5.52-.57z" stroke="#fff" stroke-opacity="0" stroke-width="2" fill="#fff"/><use xlink:href="#o" transform="matrix(1,0,0,1,595.2830188679245,249) translate(12.345679012345684 17.77777777777778)"/><use xlink:href="#p" transform="matrix(1,0,0,1,595.2830188679245,249) translate(99.93827160493828 17.77777777777778)"/><use xlink:href="#q" transform="matrix(1,0,0,1,595.2830188679245,249) translate(11.080246913580254 44.44444444444444)"/><use xlink:href="#r" transform="matrix(1,0,0,1,595.2830188679245,249) translate(94.96913580246914 44.44444444444444)"/><use xlink:href="#s" transform="matrix(1,0,0,1,595.2830188679245,249) translate(69.07407407407408 71.11111111111111)"/><path d="M225.28 120h120v120h-120V120z" stroke="#fff" stroke-opacity="0" fill="#d6242d"/><path d="M320.8 150.4h-71.04c-2.48 0-4.48 2-4.48 4.5v50.2c0 2.5 2 4.5 4.48 4.5h71.04c2.48 0 4.48-2 4.48-4.5v-50.2c0-2.5-2-4.5-4.48-4.5zm1.28 54.7c0 .7-.56 1.3-1.28 1.3h-71.04c-.72 0-1.28-.6-1.28-1.3v-50.2c0-.7.56-1.3 1.28-1.3h71.04c.72 0 1.28.6 1.28 1.3z" stroke="#fff" stroke-opacity="0" fill="#fff"/><path d="M290.08 171.2h16v3.2h-16v-3.2zM312.48 171.2h3.2v3.2h-3.2v-3.2zM283.2 176.5c-.28-.35-.67-.52-1.12-.52h-22.4v-8c.04-1.85.87-3.45 2.4-4.53 1.7-1.3 3.5-1.85 5.6-1.85 2.18-.05 4.07.64 5.76 2.03 1.4 1.08 2.18 2.6 2.24 4.36v7.98h3.2v-8.64c-.06-2.63-1.24-4.84-3.4-6.4-2.32-1.76-4.85-2.58-7.8-2.54-6.17 0-11.2 4.02-11.2 8.94v8.64h-3.2c-.9 0-1.6.74-1.6 1.6V200c0 .87.7 1.6 1.6 1.6h28.8c.9 0 1.6-.73 1.6-1.6v-22.42c0-.43-.16-.78-.44-1.08zm-2.72 7.52h-4.8v3.2h4.8v3.2h-4.8v3.2h4.8v4.78h-25.6v-19.18h25.6z" stroke="#fff" stroke-opacity="0" fill="#fff"/><path d="M267.68 181.7c-2 .03-3.7 1.2-4.38 3.1-.9 2.42.36 5.1 2.78 6v4.4h3.2v-4.4c1.88-.68 3.06-2.38 3.07-4.38 0-2.6-2.08-4.7-4.67-4.7zm0 6.73c-1.12 0-2.02-.9-2.02-2.02 0-1.13.9-2.03 2.02-2.03s2.04.9 2.04 2.04c0 1.13-.92 2.03-2.04 2.03zM290.08 179.2h11.2v3.2h-11.2v-3.2zM307.68 179.2h8v3.2h-8v-3.2zM290.08 187.2h20.8v3.2h-20.8v-3.2z" stroke="#fff" stroke-opacity="0" fill="#fff"/><g><use xlink:href="#g" transform="matrix(1,0,0,1,195.2830188679245,249) translate(4.660493827160494 17.77777777777778)"/><use xlink:href="#t" transform="matrix(1,0,0,1,195.2830188679245,249) translate(60.58641975308641 17.77777777777778)"/><use xlink:href="#u" transform="matrix(1,0,0,1,195.2830188679245,249) translate(138.30246913580248 17.77777777777778)"/><use xlink:href="#v" transform="matrix(1,0,0,1,195.2830188679245,249) translate(54.19753086419753 44.44444444444444)"/><use xlink:href="#w" transform="matrix(1,0,0,1,195.2830188679245,249) translate(25.24691358024691 71.11111111111111)"/><use xlink:href="#x" transform="matrix(1,0,0,1,195.2830188679245,249) translate(62.9320987654321 97.77777777777777)"/></g><path d="M480 40h515v60H480z" fill="none"/><g><use xlink:href="#y" transform="matrix(1,0,0,1,480,40) translate(172.52777777777786 40.88888888888886)"/></g><defs><path fill="#3a414a" d="M115-194c53 0 69 39 70 98 0 66-23 100-70 100C84 3 66-7 56-30L54 0H23l1-261h32v101c10-23 28-34 59-34zm-8 174c40 0 45-34 45-75 0-40-5-75-45-74-42 0-51 32-51 76 0 43 10 73 51 73" id="z"/><path fill="#3a414a" d="M84 4C-5 8 30-112 23-190h32v120c0 31 7 50 39 49 72-2 45-101 50-169h31l1 190h-30c-1-10 1-25-2-33-11 22-28 36-60 37" id="A"/><path fill="#3a414a" d="M96-169c-40 0-48 33-48 73s9 75 48 75c24 0 41-14 43-38l32 2c-6 37-31 61-74 61-59 0-76-41-82-99-10-93 101-131 147-64 4 7 5 14 7 22l-32 3c-4-21-16-35-41-35" id="B"/><path fill="#3a414a" d="M143 0L79-87 56-68V0H24v-261h32v163l83-92h37l-77 82L181 0h-38" id="C"/><path fill="#3a414a" d="M100-194c63 0 86 42 84 106H49c0 40 14 67 53 68 26 1 43-12 49-29l28 8c-11 28-37 45-77 45C44 4 14-33 15-96c1-61 26-98 85-98zm52 81c6-60-76-77-97-28-3 7-6 17-6 28h103" id="D"/><path fill="#3a414a" d="M59-47c-2 24 18 29 38 22v24C64 9 27 4 27-40v-127H5v-23h24l9-43h21v43h35v23H59v120" id="E"/><g id="a"><use transform="matrix(0.06172839506172839,0,0,0.06172839506172839,0,0)" xlink:href="#z"/><use transform="matrix(0.06172839506172839,0,0,0.06172839506172839,12.345679012345679,0)" xlink:href="#A"/><use transform="matrix(0.06172839506172839,0,0,0.06172839506172839,24.691358024691358,0)" xlink:href="#B"/><use transform="matrix(0.06172839506172839,0,0,0.06172839506172839,35.80246913580247,0)" xlink:href="#C"/><use transform="matrix(0.06172839506172839,0,0,0.06172839506172839,46.91358024691358,0)" xlink:href="#D"/><use transform="matrix(0.06172839506172839,0,0,0.06172839506172839,59.25925925925926,0)" xlink:href="#E"/></g><path fill="#3a414a" d="M114-163C36-179 61-72 57 0H25l-1-190h30c1 12-1 29 2 39 6-27 23-49 58-41v29" id="F"/><path fill="#3a414a" d="M115-194c55 1 70 41 70 98S169 2 115 4C84 4 66-9 55-30l1 105H24l-1-265h31l2 30c10-21 28-34 59-34zm-8 174c40 0 45-34 45-75s-6-73-45-74c-42 0-51 32-51 76 0 43 10 73 51 73" id="G"/><path fill="#3a414a" d="M24 0v-261h32V0H24" id="H"/><path fill="#3a414a" d="M24-231v-30h32v30H24zM24 0v-190h32V0H24" id="I"/><path fill="#3a414a" d="M141-36C126-15 110 5 73 4 37 3 15-17 15-53c-1-64 63-63 125-63 3-35-9-54-41-54-24 1-41 7-42 31l-33-3c5-37 33-52 76-52 45 0 72 20 72 64v82c-1 20 7 32 28 27v20c-31 9-61-2-59-35zM48-53c0 20 12 33 32 33 41-3 63-29 60-74-43 2-92-5-92 41" id="J"/><path fill="#3a414a" d="M100-194c62-1 85 37 85 99 1 63-27 99-86 99S16-35 15-95c0-66 28-99 85-99zM99-20c44 1 53-31 53-75 0-43-8-75-51-75s-53 32-53 75 10 74 51 75" id="K"/><path fill="#3a414a" d="M117-194c89-4 53 116 60 194h-32v-121c0-31-8-49-39-48C34-167 62-67 57 0H25l-1-190h30c1 10-1 24 2 32 11-22 29-35 61-36" id="L"/><g id="b"><use transform="matrix(0.06172839506172839,0,0,0.06172839506172839,0,0)" xlink:href="#F"/><use transform="matrix(0.06172839506172839,0,0,0.06172839506172839,7.345679012345679,0)" xlink:href="#D"/><use transform="matrix(0.06172839506172839,0,0,0.06172839506172839,19.691358024691358,0)" xlink:href="#G"/><use transform="matrix(0.06172839506172839,0,0,0.06172839506172839,32.03703703703704,0)" xlink:href="#H"/><use transform="matrix(0.06172839506172839,0,0,0.06172839506172839,36.91358024691358,0)" xlink:href="#I"/><use transform="matrix(0.06172839506172839,0,0,0.06172839506172839,41.79012345679013,0)" xlink:href="#B"/><use transform="matrix(0.06172839506172839,0,0,0.06172839506172839,52.90123456790124,0)" xlink:href="#J"/><use transform="matrix(0.06172839506172839,0,0,0.06172839506172839,65.24691358024693,0)" xlink:href="#E"/><use transform="matrix(0.06172839506172839,0,0,0.06172839506172839,71.41975308641976,0)" xlink:href="#I"/><use transform="matrix(0.06172839506172839,0,0,0.06172839506172839,76.2962962962963,0)" xlink:href="#K"/><use transform="matrix(0.06172839506172839,0,0,0.06172839506172839,88.64197530864199,0)" xlink:href="#L"/></g><g id="c"><use transform="matrix(0.06172839506172839,0,0,0.06172839506172839,0,0)" xlink:href="#z"/><use transform="matrix(0.06172839506172839,0,0,0.06172839506172839,12.345679012345679,0)" xlink:href="#A"/><use transform="matrix(0.06172839506172839,0,0,0.06172839506172839,24.691358024691358,0)" xlink:href="#B"/><use transform="matrix(0.06172839506172839,0,0,0.06172839506172839,35.80246913580247,0)" xlink:href="#C"/><use transform="matrix(0.06172839506172839,0,0,0.06172839506172839,46.91358024691358,0)" xlink:href="#D"/><use transform="matrix(0.06172839506172839,0,0,0.06172839506172839,59.25925925925926,0)" xlink:href="#E"/></g><g id="d"><use transform="matrix(0.06172839506172839,0,0,0.06172839506172839,0,0)" xlink:href="#F"/><use transform="matrix(0.06172839506172839,0,0,0.06172839506172839,7.345679012345679,0)" xlink:href="#K"/><use transform="matrix(0.06172839506172839,0,0,0.06172839506172839,19.691358024691358,0)" xlink:href="#H"/><use transform="matrix(0.06172839506172839,0,0,0.06172839506172839,24.5679012345679,0)" xlink:href="#D"/></g><path fill="#3a414a" d="M206 0h-36l-40-164L89 0H53L-1-190h32L70-26l43-164h34l41 164 42-164h31" id="M"/><g id="e"><use transform="matrix(0.06172839506172839,0,0,0.06172839506172839,0,0)" xlink:href="#M"/><use transform="matrix(0.06172839506172839,0,0,0.06172839506172839,15.987654320987653,0)" xlink:href="#F"/><use transform="matrix(0.06172839506172839,0,0,0.06172839506172839,23.333333333333332,0)" xlink:href="#I"/><use transform="matrix(0.06172839506172839,0,0,0.06172839506172839,28.209876543209873,0)" xlink:href="#E"/><use transform="matrix(0.06172839506172839,0,0,0.06172839506172839,34.382716049382715,0)" xlink:href="#D"/></g><path fill="#3a414a" d="M179-190L93 31C79 59 56 82 12 73V49c39 6 53-20 64-50L1-190h34L92-34l54-156h33" id="N"/><g id="f"><use transform="matrix(0.06172839506172839,0,0,0.06172839506172839,0,0)" xlink:href="#G"/><use transform="matrix(0.06172839506172839,0,0,0.06172839506172839,12.345679012345679,0)" xlink:href="#K"/><use transform="matrix(0.06172839506172839,0,0,0.06172839506172839,24.691358024691358,0)" xlink:href="#H"/><use transform="matrix(0.06172839506172839,0,0,0.06172839506172839,29.5679012345679,0)" xlink:href="#I"/><use transform="matrix(0.06172839506172839,0,0,0.06172839506172839,34.44444444444444,0)" xlink:href="#B"/><use transform="matrix(0.06172839506172839,0,0,0.06172839506172839,45.55555555555556,0)" xlink:href="#N"/></g><path fill="#3a414a" d="M205 0l-28-72H64L36 0H1l101-248h38L239 0h-34zm-38-99l-47-123c-12 45-31 82-46 123h93" id="O"/><path fill="#3a414a" d="M266 0h-40l-56-210L115 0H75L2-248h35L96-30l15-64 43-154h32l59 218 59-218h35" id="P"/><path fill="#3a414a" d="M185-189c-5-48-123-54-124 2 14 75 158 14 163 119 3 78-121 87-175 55-17-10-28-26-33-46l33-7c5 56 141 63 141-1 0-78-155-14-162-118-5-82 145-84 179-34 5 7 8 16 11 25" id="Q"/><g id="g"><use transform="matrix(0.06172839506172839,0,0,0.06172839506172839,0,0)" xlink:href="#O"/><use transform="matrix(0.06172839506172839,0,0,0.06172839506172839,14.012345679012345,0)" xlink:href="#P"/><use transform="matrix(0.06172839506172839,0,0,0.06172839506172839,34.938271604938265,0)" xlink:href="#Q"/></g><path fill="#3a414a" d="M143 4C61 4 22-44 18-125c-5-107 100-154 193-111 17 8 29 25 37 43l-32 9c-13-25-37-40-76-40-61 0-88 39-88 99 0 61 29 100 91 101 35 0 62-11 79-27v-45h-74v-28h105v86C228-13 192 4 143 4" id="R"/><g id="h"><use transform="matrix(0.06172839506172839,0,0,0.06172839506172839,0,0)" xlink:href="#R"/><use transform="matrix(0.06172839506172839,0,0,0.06172839506172839,17.28395061728395,0)" xlink:href="#D"/><use transform="matrix(0.06172839506172839,0,0,0.06172839506172839,29.629629629629626,0)" xlink:href="#L"/><use transform="matrix(0.06172839506172839,0,0,0.06172839506172839,41.9753086419753,0)" xlink:href="#D"/><use transform="matrix(0.06172839506172839,0,0,0.06172839506172839,54.32098765432098,0)" xlink:href="#F"/><use transform="matrix(0.06172839506172839,0,0,0.06172839506172839,61.66666666666666,0)" xlink:href="#J"/><use transform="matrix(0.06172839506172839,0,0,0.06172839506172839,74.01234567901234,0)" xlink:href="#H"/></g><path fill="#3a414a" d="M232-93c-1 65-40 97-104 97C67 4 28-28 28-90v-158h33c8 89-33 224 67 224 102 0 64-133 71-224h33v155" id="S"/><path fill="#3a414a" d="M135-143c-3-34-86-38-87 0 15 53 115 12 119 90S17 21 10-45l28-5c4 36 97 45 98 0-10-56-113-15-118-90-4-57 82-63 122-42 12 7 21 19 24 35" id="T"/><g id="i"><use transform="matrix(0.06172839506172839,0,0,0.06172839506172839,0,0)" xlink:href="#S"/><use transform="matrix(0.06172839506172839,0,0,0.06172839506172839,15.987654320987653,0)" xlink:href="#T"/><use transform="matrix(0.06172839506172839,0,0,0.06172839506172839,27.098765432098766,0)" xlink:href="#D"/><use transform="matrix(0.06172839506172839,0,0,0.06172839506172839,39.44444444444444,0)" xlink:href="#F"/><use transform="matrix(0.06172839506172839,0,0,0.06172839506172839,46.79012345679012,0)" xlink:href="#T"/></g><path fill="#3a414a" d="M85-194c31 0 48 13 60 33l-1-100h32l1 261h-30c-2-10 0-23-3-31C134-8 116 4 85 4 32 4 16-35 15-94c0-66 23-100 70-100zm9 24c-40 0-46 34-46 75 0 40 6 74 45 74 42 0 51-32 51-76 0-42-9-74-50-73" id="U"/><g id="j"><use transform="matrix(0.06172839506172839,0,0,0.06172839506172839,0,0)" xlink:href="#F"/><use transform="matrix(0.06172839506172839,0,0,0.06172839506172839,7.345679012345679,0)" xlink:href="#D"/><use transform="matrix(0.06172839506172839,0,0,0.06172839506172839,19.691358024691358,0)" xlink:href="#J"/><use transform="matrix(0.06172839506172839,0,0,0.06172839506172839,32.03703703703704,0)" xlink:href="#U"/><use transform="matrix(0.06172839506172839,0,0,0.06172839506172839,44.382716049382715,0)" xlink:href="#K"/><use transform="matrix(0.06172839506172839,0,0,0.06172839506172839,56.72839506172839,0)" xlink:href="#L"/><use transform="matrix(0.06172839506172839,0,0,0.06172839506172839,69.07407407407408,0)" xlink:href="#H"/><use transform="matrix(0.06172839506172839,0,0,0.06172839506172839,73.95061728395062,0)" xlink:href="#N"/></g><g id="k"><use transform="matrix(0.06172839506172839,0,0,0.06172839506172839,0,0)" xlink:href="#O"/><use transform="matrix(0.06172839506172839,0,0,0.06172839506172839,14.012345679012345,0)" xlink:href="#P"/><use transform="matrix(0.06172839506172839,0,0,0.06172839506172839,34.938271604938265,0)" xlink:href="#Q"/></g><path fill="#3a414a" d="M194 0L95-120 63-95V0H30v-248h33v124l119-124h40L117-140 236 0h-42" id="V"/><path fill="#3a414a" d="M240 0l2-218c-23 76-54 145-80 218h-23L58-218 59 0H30v-248h44l77 211c21-75 51-140 76-211h43V0h-30" id="W"/><g id="l"><use transform="matrix(0.06172839506172839,0,0,0.06172839506172839,0,0)" xlink:href="#V"/><use transform="matrix(0.06172839506172839,0,0,0.06172839506172839,14.814814814814813,0)" xlink:href="#W"/><use transform="matrix(0.06172839506172839,0,0,0.06172839506172839,33.2716049382716,0)" xlink:href="#Q"/></g><path fill="#333" d="M85-194c31 0 48 13 60 33l-1-100h32l1 261h-30c-2-10 0-23-3-31C134-8 116 4 85 4 32 4 16-35 15-94c0-66 23-100 70-100zm9 24c-40 0-46 34-46 75 0 40 6 74 45 74 42 0 51-32 51-76 0-42-9-74-50-73" id="X"/><path fill="#333" d="M141-36C126-15 110 5 73 4 37 3 15-17 15-53c-1-64 63-63 125-63 3-35-9-54-41-54-24 1-41 7-42 31l-33-3c5-37 33-52 76-52 45 0 72 20 72 64v82c-1 20 7 32 28 27v20c-31 9-61-2-59-35zM48-53c0 20 12 33 32 33 41-3 63-29 60-74-43 2-92-5-92 41" id="Y"/><path fill="#333" d="M59-47c-2 24 18 29 38 22v24C64 9 27 4 27-40v-127H5v-23h24l9-43h21v43h35v23H59v120" id="Z"/><g id="m"><use transform="matrix(0.04938271604938272,0,0,0.04938271604938272,0,0)" xlink:href="#X"/><use transform="matrix(0.04938271604938272,0,0,0.04938271604938272,9.876543209876544,0)" xlink:href="#Y"/><use transform="matrix(0.04938271604938272,0,0,0.04938271604938272,19.75308641975309,0)" xlink:href="#Z"/><use transform="matrix(0.04938271604938272,0,0,0.04938271604938272,24.69135802469136,0)" xlink:href="#Y"/></g><path fill="#333" d="M100-194c63 0 86 42 84 106H49c0 40 14 67 53 68 26 1 43-12 49-29l28 8c-11 28-37 45-77 45C44 4 14-33 15-96c1-61 26-98 85-98zm52 81c6-60-76-77-97-28-3 7-6 17-6 28h103" id="aa"/><path fill="#333" d="M117-194c89-4 53 116 60 194h-32v-121c0-31-8-49-39-48C34-167 62-67 57 0H25l-1-190h30c1 10-1 24 2 32 11-22 29-35 61-36" id="ab"/><path fill="#333" d="M96-169c-40 0-48 33-48 73s9 75 48 75c24 0 41-14 43-38l32 2c-6 37-31 61-74 61-59 0-76-41-82-99-10-93 101-131 147-64 4 7 5 14 7 22l-32 3c-4-21-16-35-41-35" id="ac"/><path fill="#333" d="M114-163C36-179 61-72 57 0H25l-1-190h30c1 12-1 29 2 39 6-27 23-49 58-41v29" id="ad"/><path fill="#333" d="M179-190L93 31C79 59 56 82 12 73V49c39 6 53-20 64-50L1-190h34L92-34l54-156h33" id="ae"/><path fill="#333" d="M115-194c55 1 70 41 70 98S169 2 115 4C84 4 66-9 55-30l1 105H24l-1-265h31l2 30c10-21 28-34 59-34zm-8 174c40 0 45-34 45-75s-6-73-45-74c-42 0-51 32-51 76 0 43 10 73 51 73" id="af"/><path fill="#333" d="M24-231v-30h32v30H24zM24 0v-190h32V0H24" id="ag"/><path fill="#333" d="M100-194c62-1 85 37 85 99 1 63-27 99-86 99S16-35 15-95c0-66 28-99 85-99zM99-20c44 1 53-31 53-75 0-43-8-75-51-75s-53 32-53 75 10 74 51 75" id="ah"/><g id="n"><use transform="matrix(0.04938271604938272,0,0,0.04938271604938272,0,0)" xlink:href="#aa"/><use transform="matrix(0.04938271604938272,0,0,0.04938271604938272,9.876543209876544,0)" xlink:href="#ab"/><use transform="matrix(0.04938271604938272,0,0,0.04938271604938272,19.75308641975309,0)" xlink:href="#ac"/><use transform="matrix(0.04938271604938272,0,0,0.04938271604938272,28.641975308641978,0)" xlink:href="#ad"/><use transform="matrix(0.04938271604938272,0,0,0.04938271604938272,34.51851851851852,0)" xlink:href="#ae"/><use transform="matrix(0.04938271604938272,0,0,0.04938271604938272,43.407407407407405,0)" xlink:href="#af"/><use transform="matrix(0.04938271604938272,0,0,0.04938271604938272,53.28395061728394,0)" xlink:href="#Z"/><use transform="matrix(0.04938271604938272,0,0,0.04938271604938272,58.222222222222214,0)" xlink:href="#ag"/><use transform="matrix(0.04938271604938272,0,0,0.04938271604938272,62.12345679012345,0)" xlink:href="#ah"/><use transform="matrix(0.04938271604938272,0,0,0.04938271604938272,72,0)" xlink:href="#ab"/></g><path fill="#3a414a" d="M210-169c-67 3-38 105-44 169h-31v-121c0-29-5-50-35-48C34-165 62-65 56 0H25l-1-190h30c1 10-1 24 2 32 10-44 99-50 107 0 11-21 27-35 58-36 85-2 47 119 55 194h-31v-121c0-29-5-49-35-48" id="ai"/><path fill="#3a414a" d="M9 0v-24l116-142H16v-24h144v24L44-24h123V0H9" id="aj"/><g id="o"><use transform="matrix(0.06172839506172839,0,0,0.06172839506172839,0,0)" xlink:href="#O"/><use transform="matrix(0.06172839506172839,0,0,0.06172839506172839,14.814814814814813,0)" xlink:href="#ai"/><use transform="matrix(0.06172839506172839,0,0,0.06172839506172839,33.2716049382716,0)" xlink:href="#J"/><use transform="matrix(0.06172839506172839,0,0,0.06172839506172839,45.61728395061728,0)" xlink:href="#aj"/><use transform="matrix(0.06172839506172839,0,0,0.06172839506172839,56.72839506172839,0)" xlink:href="#K"/><use transform="matrix(0.06172839506172839,0,0,0.06172839506172839,69.07407407407408,0)" xlink:href="#L"/></g><g id="p"><use transform="matrix(0.06172839506172839,0,0,0.06172839506172839,0,0)" xlink:href="#Q"/><use transform="matrix(0.06172839506172839,0,0,0.06172839506172839,14.814814814814813,0)" xlink:href="#I"/><use transform="matrix(0.06172839506172839,0,0,0.06172839506172839,19.691358024691354,0)" xlink:href="#ai"/><use transform="matrix(0.06172839506172839,0,0,0.06172839506172839,38.14814814814814,0)" xlink:href="#G"/><use transform="matrix(0.06172839506172839,0,0,0.06172839506172839,50.493827160493815,0)" xlink:href="#H"/><use transform="matrix(0.06172839506172839,0,0,0.06172839506172839,55.37037037037036,0)" xlink:href="#D"/></g><path fill="#3a414a" d="M177-190C167-65 218 103 67 71c-23-6-38-20-44-43l32-5c15 47 100 32 89-28v-30C133-14 115 1 83 1 29 1 15-40 15-95c0-56 16-97 71-98 29-1 48 16 59 35 1-10 0-23 2-32h30zM94-22c36 0 50-32 50-73 0-42-14-75-50-75-39 0-46 34-46 75s6 73 46 73" id="ak"/><g id="q"><use transform="matrix(0.06172839506172839,0,0,0.06172839506172839,0,0)" xlink:href="#Q"/><use transform="matrix(0.06172839506172839,0,0,0.06172839506172839,14.814814814814813,0)" xlink:href="#E"/><use transform="matrix(0.06172839506172839,0,0,0.06172839506172839,20.98765432098765,0)" xlink:href="#K"/><use transform="matrix(0.06172839506172839,0,0,0.06172839506172839,33.33333333333333,0)" xlink:href="#F"/><use transform="matrix(0.06172839506172839,0,0,0.06172839506172839,40.679012345679006,0)" xlink:href="#J"/><use transform="matrix(0.06172839506172839,0,0,0.06172839506172839,53.02469135802468,0)" xlink:href="#ak"/><use transform="matrix(0.06172839506172839,0,0,0.06172839506172839,65.37037037037037,0)" xlink:href="#D"/></g><path fill="#3a414a" d="M108 0H70L1-190h34L89-25l56-165h34" id="al"/><g id="r"><use transform="matrix(0.06172839506172839,0,0,0.06172839506172839,0,0)" xlink:href="#Q"/><use transform="matrix(0.06172839506172839,0,0,0.06172839506172839,14.814814814814813,0)" xlink:href="#D"/><use transform="matrix(0.06172839506172839,0,0,0.06172839506172839,27.160493827160494,0)" xlink:href="#F"/><use transform="matrix(0.06172839506172839,0,0,0.06172839506172839,34.50617283950617,0)" xlink:href="#al"/><use transform="matrix(0.06172839506172839,0,0,0.06172839506172839,45.61728395061728,0)" xlink:href="#I"/><use transform="matrix(0.06172839506172839,0,0,0.06172839506172839,50.49382716049382,0)" xlink:href="#B"/><use transform="matrix(0.06172839506172839,0,0,0.06172839506172839,61.60493827160494,0)" xlink:href="#D"/></g><path fill="#3a414a" d="M87 75C49 33 22-17 22-94c0-76 28-126 65-167h31c-38 41-64 92-64 168S80 34 118 75H87" id="am"/><path fill="#3a414a" d="M126-127c33 6 58 20 58 59 0 88-139 92-164 29-3-8-5-16-6-25l32-3c6 27 21 44 54 44 32 0 52-15 52-46 0-38-36-46-79-43v-28c39 1 72-4 72-42 0-27-17-43-46-43-28 0-47 15-49 41l-32-3c6-42 35-63 81-64 48-1 79 21 79 65 0 36-21 52-52 59" id="an"/><path fill="#3a414a" d="M33-261c38 41 65 92 65 168S71 34 33 75H2C39 34 66-17 66-93S39-220 2-261h31" id="ao"/><g id="s"><use transform="matrix(0.06172839506172839,0,0,0.06172839506172839,0,0)" xlink:href="#am"/><use transform="matrix(0.06172839506172839,0,0,0.06172839506172839,7.345679012345679,0)" xlink:href="#Q"/><use transform="matrix(0.06172839506172839,0,0,0.06172839506172839,22.160493827160494,0)" xlink:href="#an"/><use transform="matrix(0.06172839506172839,0,0,0.06172839506172839,34.50617283950617,0)" xlink:href="#ao"/></g><path fill="#3a414a" d="M33 0v-248h34V0H33" id="ap"/><g id="t"><use transform="matrix(0.06172839506172839,0,0,0.06172839506172839,0,0)" xlink:href="#ap"/><use transform="matrix(0.06172839506172839,0,0,0.06172839506172839,6.172839506172839,0)" xlink:href="#U"/><use transform="matrix(0.06172839506172839,0,0,0.06172839506172839,18.51851851851852,0)" xlink:href="#D"/><use transform="matrix(0.06172839506172839,0,0,0.06172839506172839,30.864197530864196,0)" xlink:href="#L"/><use transform="matrix(0.06172839506172839,0,0,0.06172839506172839,43.20987654320987,0)" xlink:href="#E"/><use transform="matrix(0.06172839506172839,0,0,0.06172839506172839,49.382716049382715,0)" xlink:href="#I"/><use transform="matrix(0.06172839506172839,0,0,0.06172839506172839,54.25925925925926,0)" xlink:href="#E"/><use transform="matrix(0.06172839506172839,0,0,0.06172839506172839,60.4320987654321,0)" xlink:href="#N"/></g><g id="u"><use transform="matrix(0.06172839506172839,0,0,0.06172839506172839,0,0)" xlink:href="#J"/><use transform="matrix(0.06172839506172839,0,0,0.06172839506172839,12.345679012345679,0)" xlink:href="#L"/><use transform="matrix(0.06172839506172839,0,0,0.06172839506172839,24.691358024691358,0)" xlink:href="#U"/></g><g id="v"><use transform="matrix(0.06172839506172839,0,0,0.06172839506172839,0,0)" xlink:href="#O"/><use transform="matrix(0.06172839506172839,0,0,0.06172839506172839,14.814814814814813,0)" xlink:href="#B"/><use transform="matrix(0.06172839506172839,0,0,0.06172839506172839,25.925925925925924,0)" xlink:href="#B"/><use transform="matrix(0.06172839506172839,0,0,0.06172839506172839,37.03703703703704,0)" xlink:href="#D"/><use transform="matrix(0.06172839506172839,0,0,0.06172839506172839,49.382716049382715,0)" xlink:href="#T"/><use transform="matrix(0.06172839506172839,0,0,0.06172839506172839,60.49382716049382,0)" xlink:href="#T"/></g><g id="w"><use transform="matrix(0.06172839506172839,0,0,0.06172839506172839,0,0)" xlink:href="#W"/><use transform="matrix(0.06172839506172839,0,0,0.06172839506172839,18.456790123456788,0)" xlink:href="#J"/><use transform="matrix(0.06172839506172839,0,0,0.06172839506172839,30.80246913580247,0)" xlink:href="#L"/><use transform="matrix(0.06172839506172839,0,0,0.06172839506172839,43.148148148148145,0)" xlink:href="#J"/><use transform="matrix(0.06172839506172839,0,0,0.06172839506172839,55.49382716049382,0)" xlink:href="#ak"/><use transform="matrix(0.06172839506172839,0,0,0.06172839506172839,67.8395061728395,0)" xlink:href="#D"/><use transform="matrix(0.06172839506172839,0,0,0.06172839506172839,80.18518518518519,0)" xlink:href="#ai"/><use transform="matrix(0.06172839506172839,0,0,0.06172839506172839,98.64197530864197,0)" xlink:href="#D"/><use transform="matrix(0.06172839506172839,0,0,0.06172839506172839,110.98765432098766,0)" xlink:href="#L"/><use transform="matrix(0.06172839506172839,0,0,0.06172839506172839,123.33333333333334,0)" xlink:href="#E"/></g><g id="x"><use transform="matrix(0.06172839506172839,0,0,0.06172839506172839,0,0)" xlink:href="#am"/><use transform="matrix(0.06172839506172839,0,0,0.06172839506172839,7.345679012345679,0)" xlink:href="#ap"/><use transform="matrix(0.06172839506172839,0,0,0.06172839506172839,13.518518518518519,0)" xlink:href="#O"/><use transform="matrix(0.06172839506172839,0,0,0.06172839506172839,28.333333333333332,0)" xlink:href="#W"/><use transform="matrix(0.06172839506172839,0,0,0.06172839506172839,46.79012345679012,0)" xlink:href="#ao"/></g><path fill="#3a414a" d="M182-130c37 4 62 22 62 59C244 23 116-4 24 0v-248c84 5 203-23 205 63 0 31-19 50-47 55zM76-148c40-3 101 13 101-30 0-44-60-28-101-31v61zm0 110c48-3 116 14 116-37 0-48-69-32-116-35v72" id="aq"/><path fill="#3a414a" d="M85 4C-2 5 27-109 22-190h50c7 57-23 150 33 157 60-5 35-97 40-157h50l1 190h-47c-2-12 1-28-3-38-12 25-28 42-61 42" id="ar"/><path fill="#3a414a" d="M190-63c-7 42-38 67-86 67-59 0-84-38-90-98-12-110 154-137 174-36l-49 2c-2-19-15-32-35-32-30 0-35 28-38 64-6 74 65 87 74 30" id="as"/><path fill="#3a414a" d="M147 0L96-86 75-71V0H25v-261h50v150l67-79h53l-66 74L201 0h-54" id="at"/><path fill="#3a414a" d="M185-48c-13 30-37 53-82 52C43 2 14-33 14-96s30-98 90-98c62 0 83 45 84 108H66c0 31 8 55 39 56 18 0 30-7 34-22zm-45-69c5-46-57-63-70-21-2 6-4 13-4 21h74" id="au"/><path fill="#3a414a" d="M115-3C79 11 28 4 28-45v-112H4v-33h27l15-45h31v45h36v33H77v99c-1 23 16 31 38 25v30" id="av"/><g id="y"><use transform="matrix(0.1419753086419752,0,0,0.1419753086419752,0,0)" xlink:href="#aq"/><use transform="matrix(0.1419753086419752,0,0,0.1419753086419752,36.77160493827157,0)" xlink:href="#ar"/><use transform="matrix(0.1419753086419752,0,0,0.1419753086419752,67.86419753086415,0)" xlink:href="#as"/><use transform="matrix(0.1419753086419752,0,0,0.1419753086419752,96.25925925925918,0)" xlink:href="#at"/><use transform="matrix(0.1419753086419752,0,0,0.1419753086419752,124.65432098765422,0)" xlink:href="#au"/><use transform="matrix(0.1419753086419752,0,0,0.1419753086419752,153.04938271604925,0)" xlink:href="#av"/></g></defs></g></svg>