<svg xmlns="http://www.w3.org/2000/svg" xmlns:xlink="http://www.w3.org/1999/xlink" xmlns:lucid="lucid" width="1576.56" height="1260"><g transform="translate(-80 -50)" lucid:page-tab-id="SGVQy8xCLuGa"><path d="M0 0h1760v1360H0z" fill="#fff"/><path d="M500 156a6 6 0 0 1 6-6h928a6 6 0 0 1 6 6v528a6 6 0 0 1-6 6H506a6 6 0 0 1-6-6z" stroke="#e81313" stroke-width="3" fill-opacity="0"/><path d="M555 456a6 6 0 0 1 6-6h173a6 6 0 0 1 6 6v148a6 6 0 0 1-6 6H561a6 6 0 0 1-6-6zM800 456a6 6 0 0 1 6-6h197.7a6 6 0 0 1 6 6v148a6 6 0 0 1-6 6H806a6 6 0 0 1-6-6zM1051.48 456a6 6 0 0 1 6-6h197.7a6 6 0 0 1 6 6v148a6 6 0 0 1-6 6h-197.7a6 6 0 0 1-6-6z" stroke="#d9a741" fill-opacity="0"/><path d="M540 431.23a6 6 0 0 1 6-6h728a6 6 0 0 1 6 6V624a6 6 0 0 1-6 6H546a6 6 0 0 1-6-6z" fill-opacity="0"/><path d="M542.7 426.23l.58-.35.87-.36.9-.22h3m4 0h6m4 0h5.98m4 0H578m4 0h6m4 0h5.98m4 0h6m3.98 0h6m4 0h5.98m4 0h6m3.98 0h6m4 0h5.98m4 0h5.98m4 0h6m3.98 0h6m4 0h5.98m4 0h5.98m4 0h6m3.98 0h6m4 0l5.98-.02m4 0h6m3.98 0h6m4 0h5.98m4 0h5.98m4 0h6m3.98 0h6m4 0h5.98m4 0h5.98m4 0h6m3.98 0h6m4 0h5.98m4 0h6m3.98 0h6m4 0h5.98m4 0h5.98m4 0h6m3.98 0h6m4 0h5.98m4 0h5.98m4 0l6-.02m3.98 0h6m4 0h5.98m4 0h6m3.98 0h6m4 0h5.98m4 0h5.98m4 0h6m3.98 0h6m4 0h5.98m4 0h5.98m4 0h6m3.98 0h6m4 0h5.98m4 0h6m3.98 0h6m4 0h5.98m4 0h5.98m4 0h6m3.98 0h6m4-.02h5.98m4 0h5.98m4 0h6m3.98 0h6m4 0h5.98m4 0h6m3.98 0h6m4 0h5.98m4 0h5.98m4 0h6m3.98 0h6m4 0h5.98m4 0h5.98m4 0h6m3.98 0h3l.94.06.9.22.62.26m2.54 2.16l.35.57.36.88.23.9v3.07m0 4.08v6.12m0 4.07v6.12m0 4.08v6.12m0 4.07v6.13m0 4.08l.02 6.13m0 4.07v6.12m0 4.08v6.12m0 4.07v6.1m0 4.1v6.1m0 4.08l.02 6.12m0 4.08v6.12m0 4.08v6.1m0 4.1v6.1m0 4.1v6.1m0 4.08l.02 6.12m0 4.08v6.1m0 4.1v6.1m0 4.1v6.1m0 4.08V624l-.07.94-.22.9-.25.62m-2.16 2.54l-.58.35-.87.36-.9.23h-3m-4 0h-6m-4 0h-5.98m-4 0H1242m-4 0h-6m-4 0h-5.98m-4 0h-6m-3.98 0h-6m-4 0h-5.98m-4 0h-6m-3.98 0h-6m-4 0h-5.98m-4 0h-5.98m-4 0h-6m-3.98 0h-6m-4 0h-5.98m-4 0h-5.98m-4 0h-6m-3.98 0h-6m-4 0l-5.98.02m-4 0h-6m-3.98 0h-6m-4 0h-5.98m-4 0h-5.98m-4 0h-6m-3.98 0h-6m-4 0h-5.98m-4 0h-5.98m-4 0h-6m-3.98 0h-6m-4 0h-5.98m-4 0h-6m-3.98 0h-6m-4 0h-5.98m-4 0h-5.98m-4 0h-6m-3.98 0h-6m-4 0h-5.98m-4 0h-5.98m-4 .02h-6m-3.98 0h-6m-4 0h-5.98m-4 0h-6m-3.98 0h-6m-4 0h-5.98m-4 0h-5.98m-4 0h-6m-3.98 0h-6m-4 0h-5.98m-4 0h-5.98m-4 0h-6m-3.98 0h-6m-4 0h-5.98m-4 0h-6m-3.98 0h-6m-4 0h-5.98m-4 0h-5.98m-4 0h-6m-3.98 0l-6 .02m-4 0h-5.98m-4 0h-5.98m-4 0h-6m-3.98 0h-6m-4 0h-5.98m-4 0h-6m-3.98 0h-6m-4 0h-5.98m-4 0h-5.98m-4 0h-6m-3.98 0h-6m-4 0h-5.98m-4 0H563m-4 0h-6m-3.98 0h-3l-.94-.07-.9-.22-.62-.25M541 627.3l-.35-.58-.36-.87-.23-.9v-3.07m0-4.08v-6.12m0-4.07v-6.1m0-4.1v-6.1m0-4.08v-6.12m0-4.08l-.02-6.12m0-4.07v-6.12m0-4.07v-6.12m0-4.06v-6.12m0-4.08v-6.12m0-4.07l-.02-6.12m0-4.08v-6.12m0-4.07v-6.12m0-4.08v-6.12m0-4.08v-6.1m0-4.1l-.02-6.1m0-4.1v-6.1m0-4.08v-6.12m0-4.08v-6.1m0-4.1v-3.05l.07-.94.22-.92.25-.6" stroke="#ff8f8f" stroke-width="2" fill="none"/><path d="M818.86 276a6 6 0 0 1 6-6h128a6 6 0 0 1 6 6v88a6 6 0 0 1-6 6h-128a6 6 0 0 1-6-6zM1255 264.13a6 6 0 0 1 6-6h128a6 6 0 0 1 6 6v111.75a6 6 0 0 1-6 6h-128a6 6 0 0 1-6-6z" stroke="#ff8f8f" stroke-width="2" fill-opacity="0"/><path d="M526.06 776a6 6 0 0 1 6-6h208a6 6 0 0 1 6 6v228a6 6 0 0 1-6 6h-208a6 6 0 0 1-6-6zM480 1056a6 6 0 0 1 6-6h234.06a6 6 0 0 1 6 6v228a6 6 0 0 1-6 6H486a6 6 0 0 1-6-6zM790.9 776a6 6 0 0 1 6-6h208a6 6 0 0 1 6 6v228a6 6 0 0 1-6 6h-208a6 6 0 0 1-6-6zM1042.38 776a6 6 0 0 1 6-6h208a6 6 0 0 1 6 6v228a6 6 0 0 1-6 6h-208a6 6 0 0 1-6-6z" stroke="#fcce14" stroke-width="3" fill-opacity="0"/><path d="M100 264.13a6 6 0 0 1 6-6h208a6 6 0 0 1 6 6v188a6 6 0 0 1-6 6H106a6 6 0 0 1-6-6z" stroke="#3a414a" stroke-width="3" fill-opacity="0"/><path d="M781.82 1056a6 6 0 0 1 6-6h234.06a6 6 0 0 1 6 6v228a6 6 0 0 1-6 6H787.82a6 6 0 0 1-6-6zM1060 1054.54a6 6 0 0 1 6-6h234.06a6 6 0 0 1 6 6v228a6 6 0 0 1-6 6H1066a6 6 0 0 1-6-6z" stroke="#fcce14" stroke-width="3" fill-opacity="0"/><path d="M643.72 276a6 6 0 0 1 6-6H784.9a6 6 0 0 1 6 6v88a6 6 0 0 1-6 6H649.7a6 6 0 0 1-6-6z" stroke="#ff8f8f" stroke-width="2" fill-opacity="0"/><path d="M100 636a6 6 0 0 1 6-6h268a6 6 0 0 1 6 6v325.3a6 6 0 0 1-6 6H106a6 6 0 0 1-6-6z" stroke="#ba23f6" stroke-width="3" fill-opacity="0"/><path d="M660 70h515v60H660z" fill="none"/><use xlink:href="#a" transform="matrix(1,0,0,1,660.0000000000002,70) translate(95.79012345679024 40.88888888888886)"/><use xlink:href="#b" transform="matrix(1,0,0,1,660.0000000000002,70) translate(246.28395061728395 40.88888888888886)"/><path d="M1579.64 372.06h-18.15c-.84 0-1.5-.67-1.5-1.5v-2.2c0-8.3 5.46-15.27 13.55-17.22.38-.08.72-.04 1.06.15 2.4 1.27 4.98 1.27 7.36 0 .35-.2.7-.24 1.07-.16 2.12.52 3.87 1.28 5.68 2.5l-1.65 2.47c-1.35-.87-2.62-1.46-4.2-1.88-3 1.38-6.1 1.38-9.13 0-6.46 1.8-10.73 7.44-10.73 14.13v.73h16.64z" stroke="#fff" stroke-opacity="0" fill="#232f3e"/><path d="M1578.27 355.16c-5.4 0-9.78-4.37-9.78-9.76 0-5.38 4.37-9.75 9.77-9.75 5.4-.06 9.8 4.27 9.85 9.64.04 3.7-1.85 6.9-5.12 8.65-1.5.84-3 1.2-4.73 1.2zm0-16.55c-3.77 0-6.85 3.04-6.87 6.8 0 2.56 1.3 4.74 3.55 5.95 2.14 1.15 4.5 1.15 6.63 0 2.28-1.23 3.6-3.45 3.56-6.05-.04-3.72-3.12-6.7-6.87-6.67zM1628.53 372.06h-18.15v-2.97h16.66v-.75c0-6.7-4.3-12.34-10.74-14.14-3.02 1.4-6.12 1.4-9.14 0-1.6.45-2.88 1.06-4.23 2l-1.7-2.45c1.8-1.26 3.57-2.05 5.7-2.6.37-.08.74-.04 1.1.15 2.35 1.28 4.97 1.28 7.35 0 .35-.2.7-.23 1.07-.15 8.08 1.95 13.55 8.9 13.55 17.2v2.22c0 .82-.66 1.47-1.47 1.5z" stroke="#fff" stroke-opacity="0" fill="#232f3e"/><path d="M1611.7 355.16c-5.44 0-9.83-4.43-9.83-9.85s4.43-9.8 9.87-9.8c5.43 0 9.83 4.42 9.83 9.85 0 3.7-1.88 6.84-5.13 8.6-1.53.83-3 1.2-4.74 1.2zm0-16.53c-3.76-.02-6.84 3-6.86 6.78-.02 2.56 1.28 4.74 3.55 5.94 2.12 1.16 4.48 1.16 6.63 0 2.3-1.22 3.62-3.46 3.58-6.07-.07-3.74-3.16-6.72-6.9-6.64zM1618.8 405.5h-47.65c-.8 0-1.47-.65-1.47-1.48v-3.16c-.05-11.45 7.54-21.07 18.67-23.78.4-.1.75-.06 1.1.1 3.55 1.92 7.44 1.92 11.03 0 .3-.16.66-.2 1.06-.1 11.18 2.68 18.77 12.3 18.72 23.78v3.16c0 .83-.66 1.48-1.47 1.48zm-46.13-2.96h44.6v-1.68c0-9.85-6.37-18.14-15.93-20.7-4.2 2.02-8.6 2.02-12.8 0-9.55 2.56-15.87 10.85-15.87 20.7z" stroke="#fff" stroke-opacity="0" fill="#232f3e"/><path d="M1595.02 381.56c-2.36 0-4.37-.5-6.47-1.63-6.5-3.56-8.87-11.67-5.33-18.17 3.56-6.48 11.7-8.86 18.2-5.33 6.5 3.56 8.9 11.67 5.35 18.17-1.3 2.36-2.98 4.04-5.34 5.33-2.06 1.12-4.08 1.63-6.4 1.63zm0-23.42c-3.9-.05-7.24 1.9-9.12 5.33-2.68 4.95-.86 11.16 4.1 13.86 3.22 1.72 6.76 1.72 9.98 0 3.46-1.87 5.45-5.22 5.4-9.12-.1-5.6-4.73-10.14-10.36-10.06z" stroke="#fff" stroke-opacity="0" fill="#232f3e"/><path d="M1628.93 372.06h-34.76c-.6 0-1.07-.48-1.07-1.08v-2.3c-.03-8.36 5.5-15.38 13.62-17.35.3-.1.55-.04.8.08 2.6 1.4 5.43 1.4 8.05 0 .23-.1.48-.16.78-.07 8.15 1.95 13.7 8.97 13.65 17.34v2.3c0 .6-.48 1.1-1.07 1.1zm-33.65-2.16h32.54v-1.23c0-7.18-4.65-13.23-11.62-15.1-3.06 1.48-6.27 1.48-9.33 0-6.98 1.87-11.6 7.92-11.6 15.1z" stroke="#fff" stroke-opacity="0" stroke-width=".73" fill="#fff" fill-opacity="0"/><path d="M1595.83 372.06h-34.76c-.6 0-1.07-.48-1.07-1.08v-2.3c-.04-8.36 5.5-15.38 13.6-17.35.3-.1.57-.04.83.08 2.58 1.4 5.42 1.4 8.04 0 .22-.1.48-.16.77-.07 8.16 1.95 13.7 8.97 13.66 17.34v2.3c0 .6-.48 1.1-1.07 1.1zm-33.65-2.16h32.54v-1.23c0-7.18-4.65-13.23-11.62-15.1-3.07 1.48-6.28 1.48-9.34 0-6.97 1.87-11.58 7.92-11.58 15.1z" stroke="#fff" stroke-opacity="0" stroke-width=".73" fill="#fff" fill-opacity="0"/><use xlink:href="#c" transform="matrix(1,0,0,1,1530,414.5) translate(40.12345679012346 17.77777777777778)"/><use xlink:href="#d" transform="matrix(1,0,0,1,1530,414.5) translate(25.555555555555557 44.44444444444444)"/><use xlink:href="#e" transform="matrix(1,0,0,1,1530,414.5) translate(36.04938271604939 71.11111111111111)"/><path d="M244.97 397.55h-43.24c-.98 0-1.73-.8-1.73-1.68v-76.64c0-.88.75-1.68 1.73-1.68h43.24c.98 0 1.73.8 1.73 1.68v76.64c0 .88-.75 1.68-1.73 1.68zm-41.56-3.44h39.9V321h-39.9z" stroke="#fff" stroke-opacity="0" fill="#232f3e"/><path d="M208.12 325.53h30.44v3.4h-30.44v-3.4zM208.12 333.5h30.44v3.42h-30.44v-3.4zM208.12 341.48h30.44v3.4h-30.44v-3.4zM208.12 349.46h30.44v3.4h-30.44v-3.4z" stroke="#fff" stroke-opacity="0" fill="#232f3e"/><use xlink:href="#f" transform="matrix(1,0,0,1,170.00000000000014,406.5482912332838) translate(20.845679012345684 17.77777777777778)"/><path d="M562.33 1181h81.4v58h-81.4v-58z" fill="#876929"/><path d="M562.33 1181h81.4v54.04h-81.4z" fill="#d9a741"/><path d="M584.92 1188.27h8.67v40.75h-8.68v-40.75zM598.7 1188.27h8.66v40.75h-8.67v-40.75zM612.45 1188.27h8.67v40.75h-8.67v-40.75zM572.38 1199.8v17.7l7.43-8.85-7.42-8.84zM626.23 1199.8v17.7l7.43-8.85-7.43-8.84z" fill="#fff"/><use xlink:href="#g" transform="matrix(1,0,0,1,562.3339836827456,1239) translate(10.135802469135804 17.77777777777778)"/><path d="M599.3 931.85h81.4v15.44h-81.4v-15.45zM599.3 914.07h81.4v14.04h-81.4v-14.03zM680.68 906.6v2.75H599.3v-2.75l46.88-15 34.5 15z" fill="#876929"/><path d="M599.3 890h81.4v16.6h-81.4V890zM599.3 911.53h81.38v13.83H599.3zM599.3 930.7h81.38v13.84H599.3z" fill="#d9a741"/><path d="M601.94 914.44h76.1v8h-76.1v-8zM601.94 933.62h76.1v8h-76.1v-8z" fill="#fff"/><use xlink:href="#h" transform="matrix(1,0,0,1,599.3073551278865,947.2935632860109) translate(17.574074074074076 17.77777777777778)"/><path d="M595.42 526.26H705V545H595.4zm0-21.52H705v17H595.4zM705 495.72v3.33h-96.22v-3.33l55.34-18.18zm-89.97-13.46v3.33c0-2.37-.44-4.6-1.32-6.74v-3.26c.9 2.08 1.33 4.37 1.33 6.66" fill="#876929"/><path d="M633.95 484.94l-18.94.62c0-2.3-.46-4.57-1.33-6.7v-3.26c.4 1.02 17.46 4.32 17.46 4.32l2.82 5.02z" fill="#876929"/><path d="M705 475.6v20.08h-96.22c5.92-5.02 7.9-12.88 4.93-20.08H705zM595.4 501.7H705v16.7H595.4zm0 23.2H705v16.77H595.4z" fill="#d9a741"/><path d="M643.9 478.52v2.2H639v3.2h4.66v2.26H639v3.67h5.1v2.25h-7.87v-13.58zm1.5 3.35h2.53v1.05c.6-.92 1.58-1.4 2.67-1.33 1.1-.12 2.14.58 2.42 1.64.45-1.1 1.5-1.76 2.67-1.62 1.76 0 2.57 1.08 2.57 3.06v7.47h-2.67v-7.2c0-.84-.32-1.33-1.04-1.33-.77 0-1.34.58-1.34 1.76v6.7h-2.7v-7.12c0-.85-.28-1.34-1.05-1.34-.73 0-1.33.58-1.33 1.76v6.7h-2.67l-.08-10.2zm14.56 3.15v-.28c0-2.38 1.62-3.17 3.6-3.17 3.15 0 3.75 1.34 3.75 3.14v5.37c-.03.67.1 1.34.33 1.97h-2.58c-.16-.33-.24-.68-.32-1.06-.53 1-1.58 1.5-2.67 1.33-1.85 0-2.5-1.56-2.5-2.93 0-1.93.8-2.68 2.62-3.22l1.5-.4c.77-.2 1.05-.5 1.05-1.2v-.3c-.08-.6-.65-1.05-1.2-.96h-.26c-.64.17-1.05.8-.88 1.44v.28h-2.44zm4.85 2c-.35.24-.76.4-1.16.52-1.05.22-1.5.73-1.5 1.65 0 .9.3 1.43 1 1.43h.1c.88 0 1.57-.7 1.57-1.58V487zm4.53-8.66H672v2.25h-2.67v-2.24zm0 3.5H672v10.28h-2.67v-10.27zm4.6-3.34h2.67v13.62h-2.67z" fill="#fff"/><path d="M609.7 485.67c0 6.82-5.52 12.36-12.34 12.36S585 492.5 585 485.67v-3.3l12.36-9.06 12.35 9.06v3.3z" fill="#8d090a"/><path d="M609.7 482.36c0 6.82-5.54 12.35-12.35 12.35-6.82 0-12.35-5.52-12.35-12.34S590.53 470 597.35 470c6.8 0 12.35 5.54 12.35 12.36z" fill="#ea2227"/><path d="M598.98 505.2h102.46v9.7H598.98zm0 23.26h102.46v9.68H598.98z" fill="#fff"/><use xlink:href="#i" transform="matrix(1,0,0,1,585.0000000000001,545) translate(23.580246913580247 17.77777777777778)"/><use xlink:href="#j" transform="matrix(1,0,0,1,585.0000000000001,545) translate(7.0061728395061635 44.44444444444444)"/><path d="M567.3 835.23l-5.05-1.45-4.77-5.55 5.32.45 4.5 6.55z" fill="#b8852e"/><path d="M567.3 835.23l3.6-7.73-3.36-.5-4.74 1.68 4.5 6.55z" fill="#d9a741"/><path d="M555.63 831.57l-2.83-.82-3.13-3.64 3.32.54 2.63 3.93z" fill="#b8852e"/><path d="M555.63 831.57l2.03-4.35-1.9-.28-2.77.7 2.63 3.93z" fill="#d9a741"/><path d="M548.44 827.22l2.9.6 14.2-12.6-14.2-14.13-2.9 1.5v24.62z" fill="#876929"/><path d="M562.54 803.58v23.18l-11.2 1.07V801.1l11.2 2.48z" fill="#d9a741"/><path d="M554.9 828.62l5 1.02 13.7-16.25-13.7-16.72-5 2.57v29.37z" fill="#876929"/><path d="M588.26 805.88v20.04l-28.37 3.72v-32.96l28.36 9.2z" fill="#d9a741"/><path d="M583.12 840l-7.17-2.05-6.77-7.9 7.56.64 6.38 9.3z" fill="#b8852e"/><path d="M583.12 840l5.13-10.97-4.8-.7-6.7 2.36 6.37 9.3z" fill="#d9a741"/><path d="M565.53 830.74l7.3 1.43 9.92-21.08-9.92-21.1-7.3 3.8v36.94z" fill="#876929"/><path d="M572.84 832.17l24.43-4.98v-24.72L572.84 790v42.17z" fill="#d9a741"/><use xlink:href="#k" transform="matrix(1,0,0,1,548.4391354692036,840) translate(-16.20987654320988 17.77777777777778)"/><use xlink:href="#l" transform="matrix(1,0,0,1,548.4391354692036,840) translate(1.691358024691361 44.44444444444444)"/><path d="M530.47 1076.88v22.98l22.4 10.14 22.37-10.14v-5.74l-19.03-2.15v-12.94l19.04-2.15v-5.74L552.86 1061l-22.4 10.14v5.74z" fill="#876929"/><path d="M530.48 1094.1l22.37 6.1v9.8l-22.37-10.14v-5.75z" fill="#876929"/><path d="M533.33 1101.15l-2.86-1.3v-28.72l2.86-1.28v31.3z" fill="#876929"/><path d="M556.2 1091.97l-22.87 2.9v-18.76l22.88 2.94v12.93zM575.24 1076.9l-22.38-6.1v-9.8l22.38 10.15v5.74zM575.22 1094.1l-22.36 6.1v9.8l22.36-10.15v-5.74z" fill="#d9a741"/><path d="M544.6 1090.75l8.25.93v-12.42l-8.24.94v10.55zM536.3 1089.82l5.36.6v-9.87l-5.35.6v8.67z" fill="#876929"/><path d="M533.33 1076.1l19.53-5.3 22.37 6.1-19.02 2.13-22.87-2.93z" fill="#624a1e"/><path d="M533.33 1094.88l19.52 5.32 22.37-6.08-19.02-2.15-22.87 2.9z" fill="#fad791"/><path d="M575.22 1089.12l-22.36 2.56v-12.42l22.36 2.58v7.28z" fill="#d9a741"/><use xlink:href="#k" transform="matrix(1,0,0,1,530.4738642555511,1110) translate(-18.20987654320988 17.77777777777778)"/><use xlink:href="#m" transform="matrix(1,0,0,1,530.4738642555511,1110) translate(-0.9567901234567842 44.44444444444444)"/><path d="M530.47 150h80v80h-80v-80z" stroke="#000" stroke-opacity="0" fill="url(#n)"/><path d="M589.24 210.03c0 2.8-2.2 5-5 5s-5-2.2-5-5c0-2.36 1.58-4.3 3.73-4.84v-2.7h-11.23v5.17c2.15.55 3.74 2.47 3.74 4.84 0 2.82-2.2 5.02-5 5.02s-5-2.2-5-5c0-2.38 1.58-4.3 3.73-4.85v-5.18H558v2.7c2.15.54 3.74 2.47 3.74 4.83 0 2.8-2.2 5-5 5s-5-2.2-5-5c0-2.36 1.58-4.3 3.73-4.84v-3.92c0-.7.55-1.26 1.26-1.26h12.5v-5h-12.5c-.7 0-1.25-.56-1.25-1.28v-17.5c0-.72.55-1.27 1.26-1.27h27.53c.72 0 1.27.55 1.27 1.27v17.5c0 .72-.55 1.27-1.27 1.27h-12.5v5.02h12.5c.72 0 1.27.55 1.27 1.26v3.9c2.15.56 3.74 2.5 3.74 4.85zM598 190c0 6-2 12.5-5.23 17l-2.04-1.48c2.92-4.07 4.8-10.02 4.8-15.52 0-13.82-11.24-25.04-25.06-25.04-13.8 0-25.04 11.22-25.04 25.04 0 5.5 1.87 11.45 4.8 15.52l-2.05 1.5c-3.24-4.53-5.23-11.02-5.23-17.02 0-15.2 12.33-27.52 27.52-27.52 15.2 0 27.52 12.33 27.52 27.52zm-17.3-12.5h-20.46l10.23 8.37zm-20.68 14.98h20.9l-7.03-6.1-2.66 2.08c-.22.22-.5.27-.77.27s-.55-.05-.77-.27l-2.64-2.1zm22.95-1.5v-12.1l-7.16 5.84zm-25-12.1v12.1l7.16-6.26zm-1.26 28.62c-1.42 0-2.46 1.1-2.46 2.53 0 1.44 1.04 2.48 2.47 2.48 1.44 0 2.5-1.03 2.5-2.47 0-1.43-1.06-2.53-2.5-2.53zm13.77 2.53c-1.43 0-2.47 1.05-2.47 2.48 0 1.44 1.04 2.54 2.47 2.54 1.43 0 2.48-1.1 2.48-2.53 0-1.42-1.05-2.47-2.48-2.47zm16.24 0c0-1.43-1.04-2.53-2.47-2.53-1.43 0-2.47 1.1-2.47 2.53 0 1.44 1.04 2.48 2.47 2.48 1.43 0 2.48-1.03 2.48-2.47z" stroke="#000" stroke-opacity="0" fill="#fff"/><use xlink:href="#o" transform="matrix(1,0,0,1,500.473864255551,239) translate(7.099999999999994 14.4)"/><use xlink:href="#p" transform="matrix(1,0,0,1,500.473864255551,239) translate(78.05 14.4)"/><use xlink:href="#q" transform="matrix(1,0,0,1,500.473864255551,239) translate(15.124999999999993 36)"/><use xlink:href="#r" transform="matrix(1,0,0,1,500.473864255551,239) translate(64.975 36)"/><path d="M1358.4 283.82c.9 0 1.6.65 1.6 1.4v40c0 .76-.7 1.4-1.6 1.4h-66.8c-.9 0-1.6-.64-1.6-1.4v-28.45h3.15v25.52l23.52-17.07-10.64-7.7 2.03-2.15 16.94 12.3 28.98-21.07h-37.66v-2.78zm-34.45 26.7l-4.76-3.48-23.18 16.8h57.96l-23.1-16.8-4.83 3.48c-.35.22-.7.32-1.05.32-.35 0-.7-.1-1.05-.32zm9.38-5.3l23.52 17.07v-34.14zm-38.15-11.07c-1.4-.75-2.52-1.82-3.3-3.26-.7-1.4-1.1-3.12-1.1-5.04 0-2.52.55-4.76 1.67-6.7 1.2-1.92 2.66-3.4 4.55-4.43 1.96-1.07 4-1.6 6.3-1.6 2.1 0 3.85.37 5.32 1.06 1.47.74 2.6 1.76 3.36 3.1.7 1.34 1.12 2.9 1.12 4.76 0 1.66-.28 3.1-.84 4.33-.56 1.28-1.33 2.24-2.3 2.88-1 .7-2.04 1.02-3.16 1.02-.7 0-1.33-.1-1.82-.32-.56-.27-.98-.6-1.26-1.02-.5.43-1.05.75-1.6 1.02-.64.26-1.27.37-1.83.37-1.2 0-2.1-.37-2.74-1.18-.63-.8-.9-1.92-.9-3.42 0-1.44.2-2.73.76-3.9.5-1.24 1.12-2.14 1.9-2.8.83-.63 1.6-.95 2.5-.95 1.06 0 1.9.43 2.67 1.28l.34-.9h2.73l-1.26 7.9c-.06.23-.06.44-.06.7 0 .33.07.6.2.76.15.16.36.27.64.27.56 0 1.05-.32 1.54-.85.5-.6.84-1.34 1.12-2.25.2-.9.35-1.87.35-2.9 0-2.13-.57-3.8-1.76-4.9-1.2-1.08-2.87-1.67-5.18-1.67-1.75 0-3.3.48-4.7 1.4-1.4.9-2.5 2.13-3.28 3.7-.77 1.48-1.12 3.25-1.12 5.17 0 2.3.56 4.07 1.75 5.25 1.13 1.23 2.8 1.82 4.98 1.82 1.26 0 2.66-.22 4.06-.65v2.2c-1.33.6-2.8.9-4.4.9-2.04 0-3.8-.37-5.26-1.17zm8.05-8.13l.77-5.14c-.5-.32-.9-.48-1.33-.48-.7 0-1.26.48-1.75 1.45-.5.96-.7 2.14-.7 3.58 0 1.77.5 2.62 1.47 2.62.55 0 1.04-.2 1.46-.64V287c0-.37 0-.7.07-.96z" stroke="#000" stroke-opacity="0" fill="#bf0816"/><path d="M1294.7 276.4c2.8-2.42 6.08-3.6 9.86-3.22 2.94.2 5.1 1.28 6.72 3.05 1.47 2.08 2.03 4.6 1.75 7.54-.2 1.02-.5 2.03-.9 2.9l4.2-.06v-2.83l42.06.06c1.18.16 1.6.74 1.6 1.65v39.8c-.2.8-.7 1.4-1.9 1.35h-66.2c-1-.06-1.76-.33-1.9-1.56v-28.3l.9-12.84c.43-2.83 1.55-5.4 3.8-7.54z" stroke="#000" stroke-opacity="0" fill-opacity="0"/><use xlink:href="#s" transform="matrix(1,0,0,1,1260,335.625) translate(12.649999999999991 14.4)"/><use xlink:href="#t" transform="matrix(1,0,0,1,1260,335.625) translate(72.5 14.4)"/><use xlink:href="#u" transform="matrix(1,0,0,1,1260,335.625) translate(10.124999999999993 36)"/><use xlink:href="#v" transform="matrix(1,0,0,1,1260,335.625) translate(75.025 36)"/><path d="M853.86 290.98c0-.53.5-.98 1.05-.98h67.9c.57 0 1.06.45 1.06.98v39.04c0 .53-.5.98-1.05.98h-67.9c-.55 0-1.04-.45-1.04-.98zm35 24.8l29.2-22.75h-58.4zm-9.38-3.43l-19.8 15.62h58.37l-19.8-15.63-9.4 7.34zm-2.52-1.93L857 294.88v31.24zm23.8 0l19.95 15.7v-31.24z" stroke="#000" stroke-opacity="0" fill="#242f3e"/><use xlink:href="#w" transform="matrix(1,0,0,1,823.8571430419614,340) translate(2.5999999999999943 14.4)"/><use xlink:href="#x" transform="matrix(1,0,0,1,823.8571430419614,340) translate(69.45 14.4)"/><path d="M850.1 526.26H959.7V545H850.1zm0-21.52H959.7v17H850.1zm109.58-9.02v3.33h-96.2v-3.33l55.33-18.18zm-89.96-13.46v3.33c0-2.37-.44-4.6-1.3-6.74v-3.26c.86 2.08 1.3 4.37 1.3 6.66" fill="#876929"/><path d="M888.64 484.94l-18.94.62c0-2.3-.47-4.57-1.34-6.7v-3.26c.4 1.02 17.46 4.32 17.46 4.32l2.82 5.02z" fill="#876929"/><path d="M959.68 475.6v20.08h-96.2c5.9-5.02 7.9-12.88 4.93-20.08h91.28zM850.1 501.7H959.7v16.7H850.1zm0 23.2H959.7v16.77H850.1z" fill="#d9a741"/><path d="M898.6 478.52v2.2h-4.9v3.2h4.65v2.26h-4.64v3.67h5.1v2.25h-7.88v-13.58zm1.5 3.35h2.53v1.05c.6-.92 1.57-1.4 2.66-1.33 1.08-.12 2.13.58 2.4 1.64.46-1.1 1.5-1.76 2.68-1.62 1.78 0 2.58 1.08 2.58 3.06v7.47h-2.66v-7.2c0-.84-.32-1.33-1.05-1.33-.77 0-1.33.58-1.33 1.76v6.7h-2.7v-7.12c0-.85-.3-1.34-1.06-1.34-.72 0-1.33.58-1.33 1.76v6.7h-2.66l-.08-10.2zm14.56 3.15v-.28c0-2.38 1.6-3.17 3.6-3.17 3.14 0 3.75 1.34 3.75 3.14v5.37c-.04.67.1 1.34.33 1.97h-2.6c-.15-.33-.23-.68-.3-1.06-.53 1-1.58 1.5-2.67 1.33-1.86 0-2.5-1.56-2.5-2.93 0-1.93.8-2.68 2.62-3.22l1.5-.4c.76-.2 1.04-.5 1.04-1.2v-.3c-.08-.6-.64-1.05-1.2-.96h-.25c-.65.17-1.05.8-.9 1.44v.28h-2.4zm4.84 2c-.36.24-.76.4-1.17.52-1.05.22-1.5.73-1.5 1.65 0 .9.3 1.43 1.02 1.43h.08c.9 0 1.57-.7 1.57-1.58V487zm4.52-8.66h2.67v2.25H924v-2.24zm0 3.5h2.67v10.28H924v-10.27zm4.6-3.34h2.67v13.62h-2.67z" fill="#fff"/><path d="M864.4 485.67c0 6.82-5.53 12.36-12.35 12.36-6.8 0-12.34-5.54-12.34-12.36v-3.3l12.35-9.06 12.35 9.06v3.3z" fill="#8d090a"/><path d="M864.4 482.36c0 6.82-5.54 12.35-12.36 12.35-6.8 0-12.35-5.52-12.35-12.34S845.22 470 852.03 470c6.82 0 12.35 5.54 12.35 12.36z" fill="#ea2227"/><path d="M853.67 505.2h102.46v9.7H853.67zm0 23.26h102.46v9.68H853.67z" fill="#fff"/><use xlink:href="#y" transform="matrix(1,0,0,1,839.6937047873857,545) translate(12.561728395061728 17.77777777777778)"/><use xlink:href="#j" transform="matrix(1,0,0,1,839.6937047873857,545) translate(7.0061728395061635 44.44444444444444)"/><path d="M1101.9 526.26h109.57V545H1101.9zm0-21.52h109.57v17H1101.9zm109.57-9.02v3.33h-96.2v-3.33l55.33-18.18zm-89.96-13.46v3.33c0-2.37-.43-4.6-1.3-6.74v-3.26c.87 2.08 1.3 4.37 1.3 6.66" fill="#876929"/><path d="M1140.43 484.94l-18.94.62c0-2.3-.48-4.57-1.35-6.7v-3.26c.4 1.02 17.46 4.32 17.46 4.32l2.83 5.02z" fill="#876929"/><path d="M1211.47 475.6v20.08h-96.2c5.9-5.02 7.88-12.88 4.92-20.08h91.27zm-109.57 26.1h109.57v16.7H1101.9zm0 23.2h109.57v16.77H1101.9z" fill="#d9a741"/><path d="M1150.38 478.52v2.2h-4.9v3.2h4.66v2.26h-4.65v3.67h5.08v2.25h-7.87v-13.58zm1.5 3.35h2.53v1.05c.62-.92 1.6-1.4 2.68-1.33 1.1-.12 2.14.58 2.42 1.64.45-1.1 1.5-1.76 2.67-1.62 1.77 0 2.58 1.08 2.58 3.06v7.47h-2.67v-7.2c0-.84-.32-1.33-1.04-1.33-.77 0-1.34.58-1.34 1.76v6.7h-2.7v-7.12c0-.85-.28-1.34-1.05-1.34-.73 0-1.33.58-1.33 1.76v6.7h-2.67l-.08-10.2zm14.56 3.15v-.28c0-2.38 1.62-3.17 3.6-3.17 3.15 0 3.75 1.34 3.75 3.14v5.37c-.05.67.07 1.34.3 1.97h-2.57c-.16-.33-.24-.68-.32-1.06-.52 1-1.57 1.5-2.66 1.33-1.85 0-2.5-1.56-2.5-2.93 0-1.93.8-2.68 2.62-3.22l1.5-.4c.77-.2 1.05-.5 1.05-1.2v-.3c-.07-.6-.64-1.05-1.2-.96h-.25c-.64.17-1.05.8-.88 1.44v.28h-2.43zm4.85 2c-.37.24-.78.4-1.18.52-1.05.22-1.5.73-1.5 1.65 0 .9.3 1.43 1 1.43h.1c.88 0 1.57-.7 1.57-1.58V487zm4.5-8.66h2.67v2.25h-2.66v-2.24zm0 3.5h2.67v10.28h-2.66v-10.27zm4.6-3.34h2.68v13.62h-2.67z" fill="#fff"/><path d="M1116.2 485.67c0 6.82-5.54 12.36-12.36 12.36-6.82 0-12.35-5.54-12.35-12.36v-3.3l12.34-9.06 12.35 9.06v3.3z" fill="#8d090a"/><path d="M1116.18 482.36c0 6.82-5.54 12.35-12.35 12.35-6.82 0-12.35-5.52-12.35-12.34S1097 470 1103.83 470c6.8 0 12.35 5.54 12.35 12.36z" fill="#ea2227"/><path d="M1105.46 505.2h102.46v9.7h-102.46zm0 23.26h102.46v9.68h-102.46z" fill="#fff"/><use xlink:href="#z" transform="matrix(1,0,0,1,1091.4799762915763,545) translate(21.820987654320987 17.77777777777778)"/><use xlink:href="#j" transform="matrix(1,0,0,1,1091.4799762915763,545) translate(7.0061728395061635 44.44444444444444)"/><path d="M888.86 371.46v36.42" stroke="#3a414a" fill="none"/><path d="M889.36 371.48h-1v-.52h1z" stroke="#3a414a" stroke-width=".05" fill="#3a414a"/><path d="M888.86 422.65l-4.64-14.27h9.27z" stroke="#3a414a" fill="#3a414a"/><path d="M636.06 1049.5v-21.65M636.06 1049.5v.5" stroke="#3a414a" fill="none"/><path d="M636.06 1013.08l4.63 14.27h-9.28z" stroke="#3a414a" fill="#3a414a"/><path d="M640 768.04v-141.2" stroke="#3a414a" fill="none"/><path d="M640.5 768.54h-1v-.52h1z" stroke="#3a414a" stroke-width=".05" fill="#3a414a"/><path d="M640 612.08l4.65 14.27h-9.27z" stroke="#3a414a" fill="#3a414a"/><path d="M960.3 310.5h277.35" stroke="#3a414a" fill="none"/><path d="M960.33 311h-.52v-1h.53z" stroke="#3a414a" stroke-width=".05" fill="#3a414a"/><path d="M1252.4 310.5l-14.25 4.64v-9.28z" stroke="#3a414a" fill="#3a414a"/><path d="M1396.46 310.5h75.52a6 6 0 0 1 6 6v48a6 6 0 0 0 6 6h59.64" stroke="#3a414a" fill="none"/><path d="M1396.47 311h-.5v-1h.5z" stroke="#3a414a" stroke-width=".05" fill="#3a414a"/><path d="M1558.38 370.5l-14.26 4.64v-9.28z" stroke="#3a414a" fill="#3a414a"/><path d="M1325 383.34v138.28a6 6 0 0 1-6 6h-21.65" stroke="#3a414a" fill="none"/><path d="M1325.5 383.35h-1v-.5h1z" stroke="#3a414a" stroke-width=".05" fill="#3a414a"/><path d="M1282.58 527.62l14.27-4.64v9.27z" stroke="#3a414a" fill="#3a414a"/><path d="M321.96 358.13H404a6 6 0 0 0 6-6v-35.6a6 6 0 0 1 6-6h66.14" stroke="#3a414a" fill="none"/><path d="M321.98 358.63h-.52v-1h.52z" stroke="#3a414a" stroke-width=".05" fill="#3a414a"/><path d="M496.9 310.52l-14.26 4.63v-9.27z" stroke="#3a414a" fill="#3a414a"/><path d="M864.14 931.85h81.4v15.44h-81.4v-15.45zM864.14 914.07h81.4v14.04h-81.4v-14.03zM945.52 906.6v2.75h-81.38v-2.75l46.87-15 34.52 15z" fill="#876929"/><path d="M864.14 890h81.4v16.6h-81.4V890zM864.14 911.53h81.38v13.83h-81.38zM864.14 930.7h81.38v13.84h-81.38z" fill="#d9a741"/><path d="M866.78 914.44h76.1v8h-76.1v-8zM866.78 933.62h76.1v8h-76.1v-8z" fill="#fff"/><use xlink:href="#h" transform="matrix(1,0,0,1,864.1438246024215,947.2935632860109) translate(17.574074074074076 17.77777777777778)"/><path d="M832.14 835.23l-5.05-1.45-4.78-5.55 5.32.45 4.5 6.55z" fill="#b8852e"/><path d="M832.14 835.23l3.6-7.73-3.37-.5-4.73 1.68 4.5 6.55z" fill="#d9a741"/><path d="M820.47 831.57l-2.84-.82-3.12-3.64 3.33.54 2.64 3.93z" fill="#b8852e"/><path d="M820.47 831.57l2.03-4.35-1.9-.28-2.77.7 2.64 3.93z" fill="#d9a741"/><path d="M813.28 827.22l2.9.6 14.2-12.6-14.2-14.13-2.9 1.5v24.62z" fill="#876929"/><path d="M827.37 803.58v23.18l-11.2 1.07V801.1l11.2 2.48z" fill="#d9a741"/><path d="M819.75 828.62l4.97 1.02 13.72-16.25-13.72-16.72-4.97 2.57v29.37z" fill="#876929"/><path d="M853.1 805.88v20.04l-28.38 3.72v-32.96l28.37 9.2z" fill="#d9a741"/><path d="M847.96 840l-7.17-2.05-6.78-7.9 7.55.64 6.4 9.3z" fill="#b8852e"/><path d="M847.95 840l5.14-10.97-4.8-.7-6.73 2.36 6.38 9.3z" fill="#d9a741"/><path d="M830.37 830.74l7.3 1.43 9.92-21.08-9.93-21.1-7.3 3.8v36.94z" fill="#876929"/><path d="M837.68 832.17l24.42-4.98v-24.72L837.68 790v42.17z" fill="#d9a741"/><use xlink:href="#k" transform="matrix(1,0,0,1,813.2756049437387,840) translate(-16.20987654320988 17.77777777777778)"/><use xlink:href="#l" transform="matrix(1,0,0,1,813.2756049437387,840) translate(1.691358024691361 44.44444444444444)"/><path d="M904.85 768.04V626.85" stroke="#3a414a" fill="none"/><path d="M905.35 768.54h-1v-.52h1z" stroke="#3a414a" stroke-width=".05" fill="#3a414a"/><path d="M904.85 612.08l4.63 14.27h-9.27z" stroke="#3a414a" fill="#3a414a"/><path d="M1115.63 931.85h81.4v15.44h-81.4v-15.45zM1115.63 914.07h81.4v14.04h-81.4v-14.03zM1197 906.6v2.75h-81.37v-2.75l46.87-15 34.5 15z" fill="#876929"/><path d="M1115.63 890h81.4v16.6h-81.4V890zM1115.63 911.53H1197v13.83h-81.37zM1115.63 930.7H1197v13.84h-81.37z" fill="#d9a741"/><path d="M1118.27 914.44h76.1v8h-76.1v-8zM1118.27 933.62h76.1v8h-76.1v-8z" fill="#fff"/><use xlink:href="#h" transform="matrix(1,0,0,1,1115.6322529583233,947.2935632860109) translate(17.574074074074076 17.77777777777778)"/><path d="M1083.62 835.23l-5.04-1.45-4.77-5.55 5.33.45 4.5 6.55z" fill="#b8852e"/><path d="M1083.62 835.23l3.6-7.73-3.36-.5-4.73 1.68 4.5 6.55z" fill="#d9a741"/><path d="M1071.96 831.57l-2.84-.82-3.12-3.64 3.32.54 2.64 3.93z" fill="#b8852e"/><path d="M1071.96 831.57l2.03-4.35-1.9-.28-2.78.7 2.64 3.93z" fill="#d9a741"/><path d="M1064.76 827.22l2.9.6 14.2-12.6-14.2-14.13-2.9 1.5v24.62z" fill="#876929"/><path d="M1078.86 803.58v23.18l-11.2 1.07V801.1l11.2 2.48z" fill="#d9a741"/><path d="M1071.24 828.62l4.97 1.02 13.73-16.25-13.72-16.72-4.96 2.57v29.37z" fill="#876929"/><path d="M1104.58 805.88v20.04l-28.37 3.72v-32.96l28.38 9.2z" fill="#d9a741"/><path d="M1099.45 840l-7.17-2.05-6.78-7.9 7.56.64 6.4 9.3z" fill="#b8852e"/><path d="M1099.44 840l5.14-10.97-4.8-.7-6.72 2.36 6.38 9.3z" fill="#d9a741"/><path d="M1081.86 830.74l7.3 1.43 9.92-21.08-9.92-21.1-7.3 3.8v36.94z" fill="#876929"/><path d="M1089.17 832.17l24.42-4.98v-24.72L1089.16 790v42.17z" fill="#d9a741"/><use xlink:href="#k" transform="matrix(1,0,0,1,1064.7640332996407,840) translate(-16.20987654320988 17.77777777777778)"/><use xlink:href="#l" transform="matrix(1,0,0,1,1064.7640332996407,840) translate(1.691358024691361 44.44444444444444)"/><path d="M1156.34 768.04V626.85" stroke="#3a414a" fill="none"/><path d="M1156.84 768.54h-1v-.52h1z" stroke="#3a414a" stroke-width=".05" fill="#3a414a"/><path d="M1156.33 612.08l4.63 14.27h-9.27z" stroke="#3a414a" fill="#3a414a"/><path d="M682.72 1119.27h-38c-.56 0-1-.47-1-1v-45.55c0-.52.44-1 1-1h38c.56 0 1 .48 1 1v45.56c0 .52-.44 1-1 1zm-36.96-2.04h35.92v-43.46h-35.92z" stroke="#fff" stroke-opacity="0" fill="#cd2264"/><path d="M661.82 1081.22h16.14v2.02h-16.14v-2.02zM661.82 1096.4h16.14v2h-16.14v-2zM661.82 1110.6h16.14v2.04h-16.14v-2.03zM652.33 1084.18c-.28 0-.52-.1-.7-.3l-3.82-3.8 1.46-1.42 2.96 2.97 5-6.66 1.6 1.22-5.68 7.57c-.18.25-.43.4-.74.4zM652.33 1099.35c-.28 0-.52-.1-.7-.3l-3.82-3.78 1.46-1.43 2.96 2.96 5-6.65 1.6 1.2-5.68 7.6c-.18.25-.43.4-.74.4zM652.33 1114.53c-.28 0-.52-.1-.7-.3l-3.82-3.8 1.46-1.42 2.96 2.98 5-6.66 1.6 1.22-5.68 7.58c-.18.25-.43.4-.74.4z" stroke="#fff" stroke-opacity="0" fill="#cd2264"/><use xlink:href="#A" transform="matrix(1,0,0,1,613.7231351366379,1128.274145616642) translate(-4.814814814814824 17.77777777777778)"/><use xlink:href="#B" transform="matrix(1,0,0,1,613.7231351366379,1128.274145616642) translate(20.432098765432094 44.44444444444444)"/><path d="M159 317.55h-38c-.56 0-1-.48-1-1V271c0-.52.44-1 1-1h38c.56 0 1 .48 1 1v45.55c0 .52-.44 1-1 1zm-36.96-2.05h35.92v-43.46h-35.92z" stroke="#fff" stroke-opacity="0" fill="#cd2264"/><path d="M138.1 279.5h16.14v2H138.1v-2zM138.1 294.66h16.14v2.03H138.1v-2.04zM138.1 308.9h16.14v2H138.1v-2zM128.6 282.45c-.28 0-.5-.1-.7-.3l-3.8-3.78 1.43-1.43 2.97 2.96 5-6.65 1.6 1.2-5.7 7.6c-.16.25-.42.4-.73.4zM128.6 297.63c-.28 0-.5-.1-.7-.3l-3.8-3.8 1.43-1.42 2.97 2.98 5-6.66 1.6 1.22-5.7 7.58c-.16.25-.42.4-.73.4zM128.6 312.8c-.28 0-.5-.1-.7-.3l-3.8-3.78 1.43-1.43 2.97 2.95 5-6.65 1.6 1.2-5.7 7.6c-.16.25-.42.4-.73.4z" stroke="#fff" stroke-opacity="0" fill="#cd2264"/><use xlink:href="#C" transform="matrix(1,0,0,1,90.00000000000011,326.5482912332838) translate(14.228395061728392 17.77777777777778)"/><use xlink:href="#B" transform="matrix(1,0,0,1,90.00000000000011,326.5482912332838) translate(20.432098765432094 44.44444444444444)"/><path d="M864.15 1181h81.4v58h-81.4v-58z" fill="#876929"/><path d="M864.15 1181h81.4v54.04h-81.4z" fill="#d9a741"/><path d="M886.74 1188.27h8.67v40.75h-8.66v-40.75zM900.5 1188.27h8.68v40.75h-8.67v-40.75zM914.27 1188.27h8.67v40.75h-8.67v-40.75zM874.2 1199.8v17.7l7.43-8.85-7.43-8.84zM928.05 1199.8v17.7l7.43-8.85-7.43-8.84z" fill="#fff"/><use xlink:href="#g" transform="matrix(1,0,0,1,864.1522766667467,1239) translate(10.135802469135804 17.77777777777778)"/><path d="M832.3 1076.88v22.98l22.37 10.14 22.4-10.14v-5.74l-19.04-2.15v-12.94l19.03-2.15v-5.74l-22.4-10.14-22.37 10.14v5.74z" fill="#876929"/><path d="M832.3 1094.1l22.37 6.1v9.8l-22.37-10.14v-5.75z" fill="#876929"/><path d="M835.15 1101.15l-2.86-1.3v-28.72l2.85-1.28v31.3z" fill="#876929"/><path d="M858.03 1091.97l-22.9 2.9v-18.76l22.9 2.94v12.93zM877.06 1076.9l-22.4-6.1v-9.8l22.4 10.15v5.74zM877.04 1094.1l-22.37 6.1v9.8l22.37-10.15v-5.74z" fill="#d9a741"/><path d="M846.43 1090.75l8.24.93v-12.42l-8.24.94v10.55zM838.12 1089.82l5.35.6v-9.87l-5.35.6v8.67z" fill="#876929"/><path d="M835.15 1076.1l19.53-5.3 22.37 6.1-19.02 2.13-22.88-2.93z" fill="#624a1e"/><path d="M835.14 1094.88l19.53 5.32 22.37-6.08-19.02-2.15-22.88 2.9z" fill="#fad791"/><path d="M877.04 1089.12l-22.37 2.56v-12.42l22.37 2.58v7.28z" fill="#d9a741"/><use xlink:href="#k" transform="matrix(1,0,0,1,832.2921572395524,1110) translate(-18.20987654320988 17.77777777777778)"/><use xlink:href="#m" transform="matrix(1,0,0,1,832.2921572395524,1110) translate(-0.9567901234567842 44.44444444444444)"/><path d="M900.8 1048.04V1027.85" stroke="#3a414a" fill="none"/><path d="M901.3 1048.54h-1v-.5h1z" stroke="#3a414a" stroke-width=".05" fill="#3a414a"/><path d="M900.8 1013.08l4.64 14.27h-9.27z" stroke="#3a414a" fill="#3a414a"/><path d="M984.54 1119.27h-38c-.56 0-1-.47-1-1v-45.55c0-.52.44-1 1-1h38c.56 0 1 .48 1 1v45.56c0 .52-.44 1-1 1zm-36.96-2.04h35.92v-43.46h-35.92z" stroke="#fff" stroke-opacity="0" fill="#cd2264"/><path d="M963.64 1081.22h16.14v2.02h-16.14v-2.02zM963.64 1096.4h16.14v2h-16.14v-2zM963.64 1110.6h16.14v2.04h-16.14v-2.03zM954.15 1084.18c-.3 0-.52-.1-.72-.3l-3.8-3.8 1.45-1.42 2.96 2.97 5-6.66 1.6 1.22-5.7 7.57c-.16.25-.42.4-.72.4zM954.15 1099.35c-.3 0-.52-.1-.72-.3l-3.8-3.78 1.45-1.43 2.96 2.96 5-6.65 1.6 1.2-5.7 7.6c-.16.25-.42.4-.72.4zM954.15 1114.53c-.3 0-.52-.1-.72-.3l-3.8-3.8 1.45-1.42 2.96 2.98 5-6.66 1.6 1.22-5.7 7.58c-.16.25-.42.4-.72.4z" stroke="#fff" stroke-opacity="0" fill="#cd2264"/><use xlink:href="#A" transform="matrix(1,0,0,1,915.541428120639,1128.274145616642) translate(-4.814814814814824 17.77777777777778)"/><use xlink:href="#B" transform="matrix(1,0,0,1,915.541428120639,1128.274145616642) translate(20.432098765432094 44.44444444444444)"/><path d="M1142.33 1179.54h81.4v58h-81.4v-58z" fill="#876929"/><path d="M1142.33 1179.54h81.4v54.04h-81.4z" fill="#d9a741"/><path d="M1164.92 1186.8h8.67v40.76h-8.68v-40.75zM1178.7 1186.8h8.66v40.76h-8.67v-40.75zM1192.45 1186.8h8.67v40.76h-8.67v-40.75zM1152.38 1198.35v17.67l7.43-8.83-7.42-8.85zM1206.23 1198.35v17.67l7.43-8.83-7.43-8.85z" fill="#fff"/><use xlink:href="#g" transform="matrix(1,0,0,1,1142.3339836827456,1237.536811294293) translate(10.135802469135804 17.77777777777778)"/><path d="M1110.47 1075.4v23l22.4 10.14 22.37-10.15v-5.74l-19.03-2.16v-12.93l19.04-2.16v-5.72l-22.38-10.14-22.4 10.14v5.73z" fill="#876929"/><path d="M1110.48 1092.65l22.37 6.08v9.8l-22.37-10.13v-5.75z" fill="#876929"/><path d="M1113.33 1099.68l-2.86-1.28v-28.73l2.86-1.28v31.28z" fill="#876929"/><path d="M1136.2 1090.5l-22.87 2.92v-18.78l22.88 2.93v12.94zM1155.24 1075.43l-22.38-6.1v-9.8l22.38 10.16v5.73zM1155.22 1092.65l-22.36 6.08v9.8l22.36-10.15v-5.73z" fill="#d9a741"/><path d="M1124.6 1089.3l8.25.92v-12.43l-8.24.94v10.55zM1116.3 1088.36l5.36.6v-9.87l-5.35.6v8.66z" fill="#876929"/><path d="M1113.33 1074.64l19.53-5.3 22.37 6.08-19.02 2.14-22.87-2.92z" fill="#624a1e"/><path d="M1113.33 1093.42l19.52 5.32 22.37-6.1-19.02-2.14-22.87 2.92z" fill="#fad791"/><path d="M1155.22 1087.66l-22.36 2.56v-12.43l22.36 2.58v7.28z" fill="#d9a741"/><use xlink:href="#k" transform="matrix(1,0,0,1,1110.4738642555508,1108.536811294293) translate(-18.20987654320988 17.77777777777778)"/><use xlink:href="#m" transform="matrix(1,0,0,1,1110.4738642555508,1108.536811294293) translate(-0.9567901234567842 44.44444444444444)"/><path d="M1178.98 1046.57v-18.73" stroke="#3a414a" fill="none"/><path d="M1179.48 1047.07h-1v-.5h1z" stroke="#3a414a" stroke-width=".05" fill="#3a414a"/><path d="M1178.98 1013.07l4.64 14.27h-9.27z" stroke="#3a414a" fill="#3a414a"/><path d="M1262.72 1117.8h-38c-.56 0-1-.46-1-1v-45.54c0-.52.44-1 1-1h38c.56 0 1 .48 1 1v45.55c0 .54-.44 1-1 1zm-36.96-2.03h35.92v-43.46h-35.92z" stroke="#fff" stroke-opacity="0" fill="#cd2264"/><path d="M1241.82 1079.75h16.14v2.03h-16.14v-2.03zM1241.82 1094.93h16.14v2.02h-16.14v-2.02zM1241.82 1109.15h16.14v2.02h-16.14v-2.02zM1232.33 1082.72c-.28 0-.52-.1-.7-.3l-3.82-3.8 1.46-1.42 2.96 2.97 5-6.66 1.6 1.23-5.68 7.58c-.18.26-.43.4-.74.42zM1232.33 1097.9c-.28 0-.52-.1-.7-.3l-3.82-3.8 1.46-1.42 2.96 2.96 5-6.65 1.6 1.2-5.68 7.6c-.18.23-.43.37-.74.4zM1232.33 1113.07c-.28 0-.52-.1-.7-.3l-3.82-3.8 1.46-1.42 2.96 2.97 5-6.66 1.6 1.22-5.68 7.58c-.18.25-.43.4-.74.4z" stroke="#fff" stroke-opacity="0" fill="#cd2264"/><use xlink:href="#A" transform="matrix(1,0,0,1,1193.7231351366377,1126.8109569109351) translate(-4.814814814814824 17.77777777777778)"/><use xlink:href="#B" transform="matrix(1,0,0,1,1193.7231351366377,1126.8109569109351) translate(20.432098765432094 44.44444444444444)"/><path d="M140 650h60v60h-60v-60z" stroke="#000" stroke-opacity="0" fill="url(#D)"/><path d="M188.45 679.63c1.03 1.77 2.2 3.8 2.2 6.77 0 5-4.06 8.7-10.87 9.95-5 .9-9.16 4.08-9.2 4.08-.17.13-.37.2-.58.2-.2 0-.4-.07-.58-.2-.04 0-4.2-3.17-9.2-4.08-6.8-1.24-10.86-4.96-10.86-9.95 0-2.97 1.16-5 2.2-6.77.9-1.53 1.64-2.85 1.64-4.62 0-3.8-2.93-6.2-2.93-6.23-.2-.12-.33-.37-.37-.62 0-.25.04-.5.2-.7.04-.04 4.83-5.86 5.95-7.35.16-.2.4-.37.7-.37.25-.04.54.08.74.3 1.77 1.93 3.9 2.96 5.94 2.96 2.27 0 4.08-1 5.82-3.3.37-.46 1.1-.46 1.48 0 1.74 2.3 3.55 3.3 5.82 3.3 2.03 0 4.17-1.04 5.95-2.98.2-.2.5-.33.75-.3.3 0 .54.18.7.38 1.12 1.5 5.9 7.3 5.95 7.35.16.2.2.45.2.7-.04.25-.16.5-.37.62 0 .04-2.93 2.48-2.93 6.24 0 1.78.74 3.1 1.65 4.63zm-9 14.86c2.2-.38 9.33-2.12 9.33-8.1 0-2.48-.95-4.13-1.94-5.82-.95-1.6-1.94-3.3-1.94-5.57 0-3.42 1.94-5.9 2.97-7-1.07-1.33-3.46-4.26-4.74-5.92-2.03 1.82-4.3 2.8-6.57 2.8-2.56 0-4.66-.98-6.56-3.13-1.9 2.15-4 3.14-6.56 3.14-2.27 0-4.54-1-6.57-2.82-1.28 1.66-3.67 4.6-4.74 5.9 1.07 1.12 2.97 3.6 2.97 7.03 0 2.28-1 3.97-1.94 5.58-1 1.7-1.94 3.34-1.94 5.82 0 5.98 7.14 7.72 9.33 8.1 4.37.77 8.1 3.1 9.45 4.03 1.36-.94 5.08-3.26 9.45-4.04zm3.06-19.5c0 2.94 1.2 4.96 2.24 6.78 1 1.73 1.6 2.88 1.6 4.62 0 4.1-5.6 5.4-7.3 5.74-3.55.62-6.6 2.1-8.6 3.26-.1.08-.27.12-.44.12-.17 0-.33-.04-.45-.12-2-1.16-5.04-2.64-8.55-3.26-1.73-.33-7.35-1.65-7.35-5.74 0-1.74.62-2.9 1.6-4.62 1.05-1.82 2.24-3.84 2.24-6.77 0-2.27-.67-4.45-1.9-6.43-.2-.38-.2-.8.08-1.12.37-.45.74-.9 1.1-1.4.3-.37.8-.46 1.2-.25 1.78 1 3.6 1.5 5.46 1.5 2.27 0 4.25-.63 6.02-1.87.33-.2.75-.2 1.08 0 1.77 1.24 3.75 1.86 6.02 1.86 1.86 0 3.68-.5 5.45-1.5.43-.2.92-.12 1.2.25.38.5.75.95 1.12 1.4.3.33.3.74.1 1.12-1.25 1.98-1.9 4.16-1.9 6.44zm-3.83 15.28c1-.17 5.82-1.16 5.82-3.88 0-1.28-.46-2.15-1.37-3.68-1.08-1.8-2.48-4.3-2.48-7.7 0-2.4.62-4.72 1.82-6.87-.1-.12-.17-.2-.25-.33-1.82.9-3.76 1.36-5.66 1.36-2.4 0-4.62-.6-6.56-1.85-1.94 1.24-4.17 1.85-6.56 1.85-1.9 0-3.84-.45-5.66-1.36-.08.13-.16.2-.25.33 1.2 2.15 1.82 4.46 1.82 6.86 0 3.43-1.4 5.9-2.48 7.72-.86 1.53-1.36 2.4-1.36 3.68 0 2.72 4.84 3.7 5.83 3.88 3.5.62 6.56 2.06 8.67 3.22 2.1-1.16 5.16-2.6 8.67-3.22zm-2.3-9.78c.52.5.77 1.15.77 2.02 0 .9-.33 1.6-1 2.2-.6.52-1.52.77-2.63.77-.86 0-1.72-.17-2.6-.55v-1.1c1.04.32 1.9.48 2.6.48.7 0 1.3-.16 1.66-.5.37-.28.58-.73.58-1.3 0-1.17-.7-1.7-2.15-1.7-.46 0-.92 0-1.33.04v-.9l2.93-3.23h-4.13v-1.12h5.66v1.08l-2.85 3.05H174.17c.9 0 1.65.25 2.2.75zm-8.15-.25c.58.53.87 1.28.87 2.2 0 .9-.34 1.64-1 2.2-.66.55-1.53.84-2.64.84-.95 0-1.82-.17-2.64-.55v-1.1c1.03.32 1.9.48 2.64.48.7 0 1.24-.16 1.65-.5.38-.32.55-.78.55-1.35 0-.66-.17-1.16-.54-1.45-.32-.33-.9-.45-1.72-.45-.58 0-1.28.04-2.15.12v-.9l.25-4.18h5.12v1.12h-3.93l-.2 2.85c.54-.1 1-.14 1.4-.14 1 0 1.78.25 2.35.8z" stroke="#000" stroke-opacity="0" fill="#fff"/><use xlink:href="#o" transform="matrix(1,0,0,1,110,719) translate(0.5499999999999972 14.4)"/><use xlink:href="#E" transform="matrix(1,0,0,1,110,719) translate(71.5 14.4)"/><use xlink:href="#F" transform="matrix(1,0,0,1,110,719) translate(50 36)"/><path d="M817.4 320h-9.16" stroke="#3a414a" fill="none"/><path d="M817.9 320.5h-.52v-1h.5z" stroke="#3a414a" stroke-width=".05" fill="#3a414a"/><path d="M793.48 320l14.26-4.64v9.28z" stroke="#3a414a" fill="#3a414a"/><path d="M712.45 275c-7.85 0-14.38 6.87-14.38 15.13 0 6.87 4.17 12.4 9.66 14.3l-3.13 3.56 3.94 3.57-3.94 3.85 3.94 3.57-3.94 4.12 7.85 7.7 6.52-7.14v-20.1c4.72-2.73 7.85-7.7 7.85-13.73 0-8.26-6.52-14.85-14.37-14.85zm2.6 11s-.5 0-.76.56c0 0-.56.55-.82.55h-2.33l-.54-.54-.5-.84v-2.46l.5-.56.8-.55h2.34l.55.55.5.84V286z" stroke="#000" stroke-opacity="0" stroke-width="6.25" fill="#fcd116"/><path d="M713.75 305.25v19.8l2.62-2.75v-17.6c-.9.28-1.68.45-2.62.55z" stroke="#000" stroke-opacity="0" stroke-width="6.25" fill="#ff8c00" fill-opacity=".4"/><path d="M712.45 299.75c4.63.05 8.5-3.43 9.15-8.25h-18.3c.66 4.82 4.52 8.3 9.15 8.25z" stroke="#000" stroke-opacity="0" stroke-width="6.25" fill="#fff" fill-opacity=".4"/><path d="M727.87 282.7c.77 1.64 1.05 2.75 1.32 4.7 5.2 5.17 7.9 11.67 7.84 19.22 0 14.3-11.25 26.13-24.87 26.13-13.56 0-24.54-11.82-24.54-26.13-.05-7.55 2.6-14.05 7.8-19.22l1.6-4.7c-7.8 5.54-12.03 14.04-12.03 23.92 0 15.94 12.3 28.88 27.45 28.88 15.15 0 27.45-12.94 27.45-28.88 0-9.88-4.73-18.7-12.03-23.92z" stroke="#000" stroke-opacity="0" stroke-width="6.25" fill="#7fba00"/><path d="M712.56 277.74c15.14 0 27.44 12.9 27.44 28.82 0 15.9-12.3 28.82-27.44 28.82-15.15 0-27.45-12.9-27.45-28.82 0-15.9 12.3-28.82 27.46-28.82z" stroke="#000" stroke-opacity="0" stroke-width=".01" fill-opacity="0"/><use xlink:href="#w" transform="matrix(1,0,0,1,655.0000000000001,344.5) translate(1.624999999999993 14.4)"/><use xlink:href="#G" transform="matrix(1,0,0,1,655.0000000000001,344.5) translate(68.475 14.4)"/><path d="M338.16 716.66H303.2c-.32 0-.72-.06-1.04-.3l-9.92-6.06c-.32-.18-.64-.3-1.04-.3h-29.36c-1.04 0-1.84.78-1.84 1.74v56.52c0 .96.88 1.74 1.84 1.74h76.32c1.04 0 1.84-.78 1.84-1.74v-49.92c0-.9-.88-1.68-1.84-1.68z" stroke="#000" stroke-opacity="0" fill="#dfa500"/><path d="M268.03 713.3h16.64c.5 0 .76.22.76.7v1.92c0 .47-.25.7-.76.7h-16.64c-.5 0-.76-.23-.76-.7V714c0-.48.26-.7.76-.7z" stroke="#000" stroke-opacity="0" fill="#fff"/><path d="M338.16 716.6h-38.32c-.56 0-1.04.16-1.36.48l-6.16 5.7c-.4.33-.8.5-1.36.5h-29.12c-1.04 0-1.84.73-1.84 1.7v43.25c0 .96.88 1.7 1.84 1.7h76.32c.96 0 1.84-.74 1.84-1.7V718.3c0-.95-.88-1.7-1.84-1.7z" stroke="#000" stroke-opacity="0" fill="url(#H)"/><use xlink:href="#I" transform="matrix(1,0,0,1,230,779.0000000000001) translate(15.099999999999994 14.4)"/><use xlink:href="#J" transform="matrix(1,0,0,1,230,779.0000000000001) translate(58 14.4)"/><path d="M205.76 849.68c2 3.36 4.24 7.12 4.24 12.8 0 9.52-7.84 16.56-21.04 18.88-9.68 1.76-17.76 7.76-17.84 7.76L170 890l-1.12-.88c-.08 0-8.16-6-17.84-7.76-13.2-2.32-21.04-9.36-21.04-18.88 0-5.68 2.24-9.44 4.24-12.8 1.76-2.96 3.2-5.44 3.2-8.8 0-7.12-5.68-11.68-5.68-11.76l-1.52-1.12 1.2-1.44c.16-.08 9.36-11.12 11.52-13.92l1.28-1.76 1.52 1.6c3.52 3.6 7.6 5.6 11.6 5.6 4.32 0 7.76-1.92 11.2-6.16L170 810l1.44 1.92c3.44 4.24 6.88 6.16 11.2 6.16 4 0 8.08-2 11.6-5.6l1.52-1.6 1.28 1.76c2.16 2.8 11.36 13.84 11.52 13.92l1.2 1.44-1.52 1.12c0 .08-5.68 4.64-5.68 11.76 0 3.36 1.44 5.84 3.2 8.8zm-17.44 28.16c4.16-.72 18-4.08 18-15.36 0-4.72-1.84-7.76-3.76-11.04-1.84-3.04-3.68-6.24-3.68-10.56 0-6.48 3.6-11.2 5.68-13.28-2.08-2.56-6.64-8-9.2-11.12-3.84 3.36-8.32 5.28-12.72 5.28-4.88 0-8.96-1.92-12.64-5.92-3.68 4-7.76 5.92-12.64 5.92-4.4 0-8.88-1.92-12.72-5.28-2.56 3.12-7.12 8.56-9.2 11.12 2.08 2.08 5.68 6.8 5.68 13.28 0 4.32-1.84 7.52-3.68 10.56-1.92 3.28-3.76 6.32-3.76 11.04 0 11.28 13.84 14.64 18 15.36 8.48 1.44 15.6 5.84 18.32 7.68 2.72-1.84 9.84-6.24 18.32-7.68z" stroke="#000" stroke-opacity="0" fill="#4d27aa"/><use xlink:href="#K" transform="matrix(1,0,0,1,100,899) translate(2.549999999999997 14.4)"/><use xlink:href="#L" transform="matrix(1,0,0,1,100,899) translate(55.5 14.4)"/><use xlink:href="#M" transform="matrix(1,0,0,1,100,899) translate(80.5 14.4)"/><use xlink:href="#N" transform="matrix(1,0,0,1,100,899) translate(49.525 36)"/><path d="M335.74 890h-58c-6 .08-10.96-4.8-11.04-10.88v-58.08c-.08-6 4.8-10.96 10.88-11.04H335.82c6.08.08 10.96 5.04 10.88 11.04v58.08c-.08 6-4.96 10.88-10.96 10.88zm-58-76.56h-.08c-4.24 0-7.6 3.44-7.52 7.6v58.08c0 4.16 3.44 7.52 7.6 7.44h58.08c4.16 0 7.52-3.36 7.6-7.52v-58-.08c-.08-4.24-3.52-7.6-7.68-7.52z" stroke="#fff" stroke-opacity="0" fill="#d86613"/><path d="M303.5 837.34h-25.53c-.95 0-1.7-.76-1.7-1.7v-15.95c0-.96.75-1.72 1.7-1.72h25.52c.95 0 1.7.76 1.7 1.7v15.95c0 .95-.75 1.7-1.7 1.7zm-23.82-3.4h22.1v-12.55h-22.1z" stroke="#fff" stroke-opacity="0" fill="#d86613"/><path d="M282.67 824.47h3.4v6.38h-3.4v-6.38zM289.05 824.47h3.4v6.38h-3.4v-6.38zM295.43 824.47h3.4v6.38h-3.4v-6.38zM303.5 859.7h-25.53c-.95 0-1.7-.77-1.7-1.72v-15.96c0-.95.75-1.7 1.7-1.7h25.52c.95 0 1.7.75 1.7 1.7v15.96c0 .95-.75 1.7-1.7 1.7zm-23.82-3.42h22.1v-12.56h-22.1z" stroke="#fff" stroke-opacity="0" fill="#d86613"/><path d="M282.67 846.82h3.4v6.38h-3.4v-6.38zM289.05 846.82h3.4v6.38h-3.4v-6.38zM295.43 846.82h3.4v6.38h-3.4v-6.38zM303.5 882.02h-25.53c-.95 0-1.7-.76-1.7-1.7v-15.95c0-.95.75-1.7 1.7-1.7h25.52c.95 0 1.7.75 1.7 1.7v15.94c0 .96-.75 1.72-1.7 1.72zm-23.82-3.4h22.1v-12.55h-22.1z" stroke="#fff" stroke-opacity="0" fill="#d86613"/><path d="M282.67 869.15h3.4v6.38h-3.4v-6.38zM289.05 869.15h3.4v6.38h-3.4v-6.38zM295.43 869.15h3.4v6.38h-3.4v-6.38zM335.43 837.34H309.9c-.95 0-1.7-.76-1.7-1.7v-15.95c0-.96.75-1.72 1.7-1.72h25.53c.95 0 1.7.76 1.7 1.7v15.95c0 .95-.75 1.7-1.7 1.7zm-23.82-3.4h22.12v-12.55h-22.1z" stroke="#fff" stroke-opacity="0" fill="#d86613"/><path d="M314.58 824.47h3.4v6.38h-3.4v-6.38zM320.96 824.47h3.4v6.38h-3.4v-6.38zM327.35 824.47h3.4v6.38h-3.4v-6.38zM335.43 859.7H309.9c-.95 0-1.7-.77-1.7-1.72v-15.96c0-.95.75-1.7 1.7-1.7h25.53c.95 0 1.7.75 1.7 1.7v15.96c0 .95-.75 1.7-1.7 1.7zm-23.82-3.42h22.12v-12.56h-22.1z" stroke="#fff" stroke-opacity="0" fill="#d86613"/><path d="M314.58 846.82h3.4v6.38h-3.4v-6.38zM320.96 846.82h3.4v6.38h-3.4v-6.38zM327.35 846.82h3.4v6.38h-3.4v-6.38zM335.43 882.02H309.9c-.95 0-1.7-.76-1.7-1.7v-15.95c0-.95.75-1.7 1.7-1.7h25.53c.95 0 1.7.75 1.7 1.7v15.94c0 .96-.75 1.72-1.7 1.72zm-23.82-3.4h22.12v-12.55h-22.1z" stroke="#fff" stroke-opacity="0" fill="#d86613"/><path d="M314.58 869.15h3.4v6.38h-3.4v-6.38zM320.96 869.15h3.4v6.38h-3.4v-6.38zM327.35 869.15h3.4v6.38h-3.4v-6.38z" stroke="#fff" stroke-opacity="0" fill="#d86613"/><g><use xlink:href="#O" transform="matrix(1,0,0,1,236.70000000000005,899) translate(31.820987654320987 17.77777777777778)"/><use xlink:href="#P" transform="matrix(1,0,0,1,236.70000000000005,899) translate(15.185185185185176 44.44444444444444)"/></g><path d="M642.26 320h-14.5a6 6 0 0 0-6 6v68a6 6 0 0 1-6 6H446a6 6 0 0 0-6 6v328a6 6 0 0 1-6 6h-77.62" stroke="#3a414a" fill="none"/><path d="M642.76 320.5h-.5v-1h.5z" stroke="#3a414a" stroke-width=".05" fill="#3a414a"/><path d="M341.62 740l14.26-4.64v9.28z" stroke="#3a414a" fill="#3a414a"/><path d="M206.4 850h53.48" stroke="#3a414a" fill="none"/><path d="M206.42 850.5h-.27l-.4-.82-.1-.18h.77z" stroke="#3a414a" stroke-width=".05" fill="#3a414a"/><path d="M274.65 850l-14.27 4.64v-9.28z" stroke="#3a414a" fill="#3a414a"/><defs><path fill="#3a414a" d="M24 0v-248h195v40H76v63h132v40H76v65h150V0H24" id="Q"/><path fill="#3a414a" d="M220-157c-53 9-28 100-34 157h-49v-107c1-27-5-49-29-50C55-147 81-57 75 0H25l-1-190h47c2 12-1 28 3 38 10-53 101-56 108 0 13-22 24-43 59-42 82 1 51 116 57 194h-49v-107c-1-25-5-48-29-50" id="R"/><path fill="#3a414a" d="M133-34C117-15 103 5 69 4 32 3 11-16 11-54c-1-60 55-63 116-61 1-26-3-47-28-47-18 1-26 9-28 27l-52-2c7-38 36-58 82-57s74 22 75 68l1 82c-1 14 12 18 25 15v27c-30 8-71 5-69-32zm-48 3c29 0 43-24 42-57-32 0-66-3-65 30 0 17 8 27 23 27" id="S"/><path fill="#3a414a" d="M25-224v-37h50v37H25zM25 0v-190h50V0H25" id="T"/><path fill="#3a414a" d="M25 0v-261h50V0H25" id="U"/><g id="a"><use transform="matrix(0.1419753086419752,0,0,0.1419753086419752,0,0)" xlink:href="#Q"/><use transform="matrix(0.1419753086419752,0,0,0.1419753086419752,34.07407407407405,0)" xlink:href="#R"/><use transform="matrix(0.1419753086419752,0,0,0.1419753086419752,79.5061728395061,0)" xlink:href="#S"/><use transform="matrix(0.1419753086419752,0,0,0.1419753086419752,107.90123456790114,0)" xlink:href="#T"/><use transform="matrix(0.1419753086419752,0,0,0.1419753086419752,122.09876543209866,0)" xlink:href="#U"/></g><path fill="#3a414a" d="M169-182c-1-43-94-46-97-3 18 66 151 10 154 114 3 95-165 93-204 36-6-8-10-19-12-30l50-8c3 46 112 56 116 5-17-69-150-10-154-114-4-87 153-88 188-35 5 8 8 18 10 28" id="V"/><path fill="#3a414a" d="M185-48c-13 30-37 53-82 52C43 2 14-33 14-96s30-98 90-98c62 0 83 45 84 108H66c0 31 8 55 39 56 18 0 30-7 34-22zm-45-69c5-46-57-63-70-21-2 6-4 13-4 21h74" id="W"/><path fill="#3a414a" d="M135-194c87-1 58 113 63 194h-50c-7-57 23-157-34-157-59 0-34 97-39 157H25l-1-190h47c2 12-1 28 3 38 12-26 28-41 61-42" id="X"/><path fill="#3a414a" d="M88-194c31-1 46 15 58 34l-1-101h50l1 261h-48c-2-10 0-23-3-31C134-8 116 4 84 4 32 4 16-41 15-95c0-56 19-97 73-99zm17 164c33 0 40-30 41-66 1-37-9-64-41-64s-38 30-39 65c0 43 13 65 39 65" id="Y"/><path fill="#3a414a" d="M135-150c-39-12-60 13-60 57V0H25l-1-190h47c2 13-1 29 3 40 6-28 27-53 61-41v41" id="Z"/><g id="b"><use transform="matrix(0.1419753086419752,0,0,0.1419753086419752,0,0)" xlink:href="#V"/><use transform="matrix(0.1419753086419752,0,0,0.1419753086419752,34.07407407407405,0)" xlink:href="#W"/><use transform="matrix(0.1419753086419752,0,0,0.1419753086419752,62.46913580246908,0)" xlink:href="#X"/><use transform="matrix(0.1419753086419752,0,0,0.1419753086419752,93.56172839506165,0)" xlink:href="#Y"/><use transform="matrix(0.1419753086419752,0,0,0.1419753086419752,124.65432098765422,0)" xlink:href="#W"/><use transform="matrix(0.1419753086419752,0,0,0.1419753086419752,153.04938271604925,0)" xlink:href="#Z"/></g><path fill="#3a414a" d="M205 0l-28-72H64L36 0H1l101-248h38L239 0h-34zm-38-99l-47-123c-12 45-31 82-46 123h93" id="aa"/><path fill="#3a414a" d="M266 0h-40l-56-210L115 0H75L2-248h35L96-30l15-64 43-154h32l59 218 59-218h35" id="ab"/><path fill="#3a414a" d="M185-189c-5-48-123-54-124 2 14 75 158 14 163 119 3 78-121 87-175 55-17-10-28-26-33-46l33-7c5 56 141 63 141-1 0-78-155-14-162-118-5-82 145-84 179-34 5 7 8 16 11 25" id="ac"/><g id="c"><use transform="matrix(0.06172839506172839,0,0,0.06172839506172839,0,0)" xlink:href="#aa"/><use transform="matrix(0.06172839506172839,0,0,0.06172839506172839,14.012345679012345,0)" xlink:href="#ab"/><use transform="matrix(0.06172839506172839,0,0,0.06172839506172839,34.938271604938265,0)" xlink:href="#ac"/></g><path fill="#3a414a" d="M143 4C61 4 22-44 18-125c-5-107 100-154 193-111 17 8 29 25 37 43l-32 9c-13-25-37-40-76-40-61 0-88 39-88 99 0 61 29 100 91 101 35 0 62-11 79-27v-45h-74v-28h105v86C228-13 192 4 143 4" id="ad"/><path fill="#3a414a" d="M100-194c63 0 86 42 84 106H49c0 40 14 67 53 68 26 1 43-12 49-29l28 8c-11 28-37 45-77 45C44 4 14-33 15-96c1-61 26-98 85-98zm52 81c6-60-76-77-97-28-3 7-6 17-6 28h103" id="ae"/><path fill="#3a414a" d="M117-194c89-4 53 116 60 194h-32v-121c0-31-8-49-39-48C34-167 62-67 57 0H25l-1-190h30c1 10-1 24 2 32 11-22 29-35 61-36" id="af"/><path fill="#3a414a" d="M114-163C36-179 61-72 57 0H25l-1-190h30c1 12-1 29 2 39 6-27 23-49 58-41v29" id="ag"/><path fill="#3a414a" d="M141-36C126-15 110 5 73 4 37 3 15-17 15-53c-1-64 63-63 125-63 3-35-9-54-41-54-24 1-41 7-42 31l-33-3c5-37 33-52 76-52 45 0 72 20 72 64v82c-1 20 7 32 28 27v20c-31 9-61-2-59-35zM48-53c0 20 12 33 32 33 41-3 63-29 60-74-43 2-92-5-92 41" id="ah"/><path fill="#3a414a" d="M24 0v-261h32V0H24" id="ai"/><g id="d"><use transform="matrix(0.06172839506172839,0,0,0.06172839506172839,0,0)" xlink:href="#ad"/><use transform="matrix(0.06172839506172839,0,0,0.06172839506172839,17.28395061728395,0)" xlink:href="#ae"/><use transform="matrix(0.06172839506172839,0,0,0.06172839506172839,29.629629629629626,0)" xlink:href="#af"/><use transform="matrix(0.06172839506172839,0,0,0.06172839506172839,41.9753086419753,0)" xlink:href="#ae"/><use transform="matrix(0.06172839506172839,0,0,0.06172839506172839,54.32098765432098,0)" xlink:href="#ag"/><use transform="matrix(0.06172839506172839,0,0,0.06172839506172839,61.66666666666666,0)" xlink:href="#ah"/><use transform="matrix(0.06172839506172839,0,0,0.06172839506172839,74.01234567901234,0)" xlink:href="#ai"/></g><path fill="#3a414a" d="M232-93c-1 65-40 97-104 97C67 4 28-28 28-90v-158h33c8 89-33 224 67 224 102 0 64-133 71-224h33v155" id="aj"/><path fill="#3a414a" d="M135-143c-3-34-86-38-87 0 15 53 115 12 119 90S17 21 10-45l28-5c4 36 97 45 98 0-10-56-113-15-118-90-4-57 82-63 122-42 12 7 21 19 24 35" id="ak"/><g id="e"><use transform="matrix(0.06172839506172839,0,0,0.06172839506172839,0,0)" xlink:href="#aj"/><use transform="matrix(0.06172839506172839,0,0,0.06172839506172839,15.987654320987653,0)" xlink:href="#ak"/><use transform="matrix(0.06172839506172839,0,0,0.06172839506172839,27.098765432098766,0)" xlink:href="#ae"/><use transform="matrix(0.06172839506172839,0,0,0.06172839506172839,39.44444444444444,0)" xlink:href="#ag"/><use transform="matrix(0.06172839506172839,0,0,0.06172839506172839,46.79012345679012,0)" xlink:href="#ak"/></g><path fill="#3a414a" d="M108 0H70L1-190h34L89-25l56-165h34" id="al"/><g id="f"><use transform="matrix(0.06172839506172839,0,0,0.06172839506172839,0,0)" xlink:href="#ac"/><use transform="matrix(0.06172839506172839,0,0,0.06172839506172839,14.814814814814813,0)" xlink:href="#ae"/><use transform="matrix(0.06172839506172839,0,0,0.06172839506172839,27.160493827160494,0)" xlink:href="#ag"/><use transform="matrix(0.06172839506172839,0,0,0.06172839506172839,34.50617283950617,0)" xlink:href="#al"/><use transform="matrix(0.06172839506172839,0,0,0.06172839506172839,45.61728395061728,0)" xlink:href="#ae"/><use transform="matrix(0.06172839506172839,0,0,0.06172839506172839,57.962962962962955,0)" xlink:href="#ag"/></g><path fill="#3a414a" d="M145-31C134-9 116 4 85 4 32 4 16-35 15-94c0-59 17-99 70-100 32-1 48 14 60 33 0-11-1-24 2-32h30l-1 268h-32zM93-21c41 0 51-33 51-76s-8-73-50-73c-40 0-46 35-46 75s5 74 45 74" id="am"/><path fill="#3a414a" d="M84 4C-5 8 30-112 23-190h32v120c0 31 7 50 39 49 72-2 45-101 50-169h31l1 190h-30c-1-10 1-25-2-33-11 22-28 36-60 37" id="an"/><g id="g"><use transform="matrix(0.06172839506172839,0,0,0.06172839506172839,0,0)" xlink:href="#am"/><use transform="matrix(0.06172839506172839,0,0,0.06172839506172839,12.345679012345679,0)" xlink:href="#an"/><use transform="matrix(0.06172839506172839,0,0,0.06172839506172839,24.691358024691358,0)" xlink:href="#ae"/><use transform="matrix(0.06172839506172839,0,0,0.06172839506172839,37.03703703703704,0)" xlink:href="#an"/><use transform="matrix(0.06172839506172839,0,0,0.06172839506172839,49.382716049382715,0)" xlink:href="#ae"/></g><path fill="#3a414a" d="M59-47c-2 24 18 29 38 22v24C64 9 27 4 27-40v-127H5v-23h24l9-43h21v43h35v23H59v120" id="ao"/><path fill="#3a414a" d="M100-194c62-1 85 37 85 99 1 63-27 99-86 99S16-35 15-95c0-66 28-99 85-99zM99-20c44 1 53-31 53-75 0-43-8-75-51-75s-53 32-53 75 10 74 51 75" id="ap"/><path fill="#3a414a" d="M115-194c55 1 70 41 70 98S169 2 115 4C84 4 66-9 55-30l1 105H24l-1-265h31l2 30c10-21 28-34 59-34zm-8 174c40 0 45-34 45-75s-6-73-45-74c-42 0-51 32-51 76 0 43 10 73 51 73" id="aq"/><path fill="#3a414a" d="M24-231v-30h32v30H24zM24 0v-190h32V0H24" id="ar"/><path fill="#3a414a" d="M96-169c-40 0-48 33-48 73s9 75 48 75c24 0 41-14 43-38l32 2c-6 37-31 61-74 61-59 0-76-41-82-99-10-93 101-131 147-64 4 7 5 14 7 22l-32 3c-4-21-16-35-41-35" id="as"/><g id="h"><use transform="matrix(0.06172839506172839,0,0,0.06172839506172839,0,0)" xlink:href="#ao"/><use transform="matrix(0.06172839506172839,0,0,0.06172839506172839,6.172839506172839,0)" xlink:href="#ap"/><use transform="matrix(0.06172839506172839,0,0,0.06172839506172839,18.51851851851852,0)" xlink:href="#aq"/><use transform="matrix(0.06172839506172839,0,0,0.06172839506172839,30.864197530864196,0)" xlink:href="#ar"/><use transform="matrix(0.06172839506172839,0,0,0.06172839506172839,35.74074074074074,0)" xlink:href="#as"/></g><path fill="#3a414a" d="M115-194c53 0 69 39 70 98 0 66-23 100-70 100C84 3 66-7 56-30L54 0H23l1-261h32v101c10-23 28-34 59-34zm-8 174c40 0 45-34 45-75 0-40-5-75-45-74-42 0-51 32-51 76 0 43 10 73 51 73" id="at"/><g id="i"><use transform="matrix(0.06172839506172839,0,0,0.06172839506172839,0,0)" xlink:href="#at"/><use transform="matrix(0.06172839506172839,0,0,0.06172839506172839,12.345679012345679,0)" xlink:href="#ap"/><use transform="matrix(0.06172839506172839,0,0,0.06172839506172839,24.691358024691358,0)" xlink:href="#an"/><use transform="matrix(0.06172839506172839,0,0,0.06172839506172839,37.03703703703704,0)" xlink:href="#af"/><use transform="matrix(0.06172839506172839,0,0,0.06172839506172839,49.382716049382715,0)" xlink:href="#as"/><use transform="matrix(0.06172839506172839,0,0,0.06172839506172839,60.49382716049382,0)" xlink:href="#ae"/></g><path fill="#3a414a" d="M101-234c-31-9-42 10-38 44h38v23H63V0H32v-167H5v-23h27c-7-52 17-82 69-68v24" id="au"/><g id="j"><use transform="matrix(0.06172839506172839,0,0,0.06172839506172839,0,0)" xlink:href="#af"/><use transform="matrix(0.06172839506172839,0,0,0.06172839506172839,12.345679012345679,0)" xlink:href="#ap"/><use transform="matrix(0.06172839506172839,0,0,0.06172839506172839,24.691358024691358,0)" xlink:href="#ao"/><use transform="matrix(0.06172839506172839,0,0,0.06172839506172839,30.864197530864196,0)" xlink:href="#ar"/><use transform="matrix(0.06172839506172839,0,0,0.06172839506172839,35.74074074074074,0)" xlink:href="#au"/><use transform="matrix(0.06172839506172839,0,0,0.06172839506172839,41.91358024691358,0)" xlink:href="#ar"/><use transform="matrix(0.06172839506172839,0,0,0.06172839506172839,46.79012345679013,0)" xlink:href="#as"/><use transform="matrix(0.06172839506172839,0,0,0.06172839506172839,57.90123456790124,0)" xlink:href="#ah"/><use transform="matrix(0.06172839506172839,0,0,0.06172839506172839,70.24691358024693,0)" xlink:href="#ao"/><use transform="matrix(0.06172839506172839,0,0,0.06172839506172839,76.41975308641976,0)" xlink:href="#ar"/><use transform="matrix(0.06172839506172839,0,0,0.06172839506172839,81.2962962962963,0)" xlink:href="#ap"/><use transform="matrix(0.06172839506172839,0,0,0.06172839506172839,93.64197530864199,0)" xlink:href="#af"/></g><path fill="#3a414a" d="M210-169c-67 3-38 105-44 169h-31v-121c0-29-5-50-35-48C34-165 62-65 56 0H25l-1-190h30c1 10-1 24 2 32 10-44 99-50 107 0 11-21 27-35 58-36 85-2 47 119 55 194h-31v-121c0-29-5-49-35-48" id="av"/><path fill="#3a414a" d="M9 0v-24l116-142H16v-24h144v24L44-24h123V0H9" id="aw"/><g id="k"><use transform="matrix(0.06172839506172839,0,0,0.06172839506172839,0,0)" xlink:href="#aa"/><use transform="matrix(0.06172839506172839,0,0,0.06172839506172839,14.814814814814813,0)" xlink:href="#av"/><use transform="matrix(0.06172839506172839,0,0,0.06172839506172839,33.2716049382716,0)" xlink:href="#ah"/><use transform="matrix(0.06172839506172839,0,0,0.06172839506172839,45.61728395061728,0)" xlink:href="#aw"/><use transform="matrix(0.06172839506172839,0,0,0.06172839506172839,56.72839506172839,0)" xlink:href="#ap"/><use transform="matrix(0.06172839506172839,0,0,0.06172839506172839,69.07407407407408,0)" xlink:href="#af"/></g><path fill="#3a414a" d="M190 0L58-211 59 0H30v-248h39L202-35l-2-213h31V0h-41" id="ax"/><g id="l"><use transform="matrix(0.06172839506172839,0,0,0.06172839506172839,0,0)" xlink:href="#ac"/><use transform="matrix(0.06172839506172839,0,0,0.06172839506172839,14.814814814814813,0)" xlink:href="#ax"/><use transform="matrix(0.06172839506172839,0,0,0.06172839506172839,30.80246913580247,0)" xlink:href="#ac"/></g><path fill="#3a414a" d="M140-251c81 0 123 46 123 126C263-53 228-8 163 1c7 30 30 48 69 40v23c-55 16-95-15-103-61C56-3 17-48 17-125c0-80 42-126 123-126zm0 227c63 0 89-41 89-101s-29-99-89-99c-61 0-89 39-89 99S79-25 140-24" id="ay"/><g id="m"><use transform="matrix(0.06172839506172839,0,0,0.06172839506172839,0,0)" xlink:href="#ac"/><use transform="matrix(0.06172839506172839,0,0,0.06172839506172839,14.814814814814813,0)" xlink:href="#ay"/><use transform="matrix(0.06172839506172839,0,0,0.06172839506172839,32.09876543209876,0)" xlink:href="#ac"/></g><linearGradient gradientUnits="userSpaceOnUse" id="n" x1="530.47" y1="230" x2="610.47" y2="150"><stop offset="0%" stop-color="#bd0816"/><stop offset="100%" stop-color="#ff5252"/></linearGradient><path d="M205 0l-28-72H64L36 0H1l101-248h38L239 0h-34zm-38-99l-47-123c-12 45-31 82-46 123h93" id="az"/><path d="M210-169c-67 3-38 105-44 169h-31v-121c0-29-5-50-35-48C34-165 62-65 56 0H25l-1-190h30c1 10-1 24 2 32 10-44 99-50 107 0 11-21 27-35 58-36 85-2 47 119 55 194h-31v-121c0-29-5-49-35-48" id="aA"/><path d="M141-36C126-15 110 5 73 4 37 3 15-17 15-53c-1-64 63-63 125-63 3-35-9-54-41-54-24 1-41 7-42 31l-33-3c5-37 33-52 76-52 45 0 72 20 72 64v82c-1 20 7 32 28 27v20c-31 9-61-2-59-35zM48-53c0 20 12 33 32 33 41-3 63-29 60-74-43 2-92-5-92 41" id="aB"/><path d="M9 0v-24l116-142H16v-24h144v24L44-24h123V0H9" id="aC"/><path d="M100-194c62-1 85 37 85 99 1 63-27 99-86 99S16-35 15-95c0-66 28-99 85-99zM99-20c44 1 53-31 53-75 0-43-8-75-51-75s-53 32-53 75 10 74 51 75" id="aD"/><path d="M117-194c89-4 53 116 60 194h-32v-121c0-31-8-49-39-48C34-167 62-67 57 0H25l-1-190h30c1 10-1 24 2 32 11-22 29-35 61-36" id="aE"/><g id="o"><use transform="matrix(0.05,0,0,0.05,0,0)" xlink:href="#az"/><use transform="matrix(0.05,0,0,0.05,12,0)" xlink:href="#aA"/><use transform="matrix(0.05,0,0,0.05,26.950000000000003,0)" xlink:href="#aB"/><use transform="matrix(0.05,0,0,0.05,36.95,0)" xlink:href="#aC"/><use transform="matrix(0.05,0,0,0.05,45.95,0)" xlink:href="#aD"/><use transform="matrix(0.05,0,0,0.05,55.95,0)" xlink:href="#aE"/></g><path d="M185-189c-5-48-123-54-124 2 14 75 158 14 163 119 3 78-121 87-175 55-17-10-28-26-33-46l33-7c5 56 141 63 141-1 0-78-155-14-162-118-5-82 145-84 179-34 5 7 8 16 11 25" id="aF"/><path d="M24-231v-30h32v30H24zM24 0v-190h32V0H24" id="aG"/><path d="M115-194c55 1 70 41 70 98S169 2 115 4C84 4 66-9 55-30l1 105H24l-1-265h31l2 30c10-21 28-34 59-34zm-8 174c40 0 45-34 45-75s-6-73-45-74c-42 0-51 32-51 76 0 43 10 73 51 73" id="aH"/><path d="M24 0v-261h32V0H24" id="aI"/><path d="M100-194c63 0 86 42 84 106H49c0 40 14 67 53 68 26 1 43-12 49-29l28 8c-11 28-37 45-77 45C44 4 14-33 15-96c1-61 26-98 85-98zm52 81c6-60-76-77-97-28-3 7-6 17-6 28h103" id="aJ"/><g id="p"><use transform="matrix(0.05,0,0,0.05,0,0)" xlink:href="#aF"/><use transform="matrix(0.05,0,0,0.05,12,0)" xlink:href="#aG"/><use transform="matrix(0.05,0,0,0.05,15.949999999999998,0)" xlink:href="#aA"/><use transform="matrix(0.05,0,0,0.05,30.899999999999995,0)" xlink:href="#aH"/><use transform="matrix(0.05,0,0,0.05,40.9,0)" xlink:href="#aI"/><use transform="matrix(0.05,0,0,0.05,44.85,0)" xlink:href="#aJ"/></g><path d="M30 0v-248h187v28H63v79h144v27H63v87h162V0H30" id="aK"/><g id="q"><use transform="matrix(0.05,0,0,0.05,0,0)" xlink:href="#aK"/><use transform="matrix(0.05,0,0,0.05,12,0)" xlink:href="#aA"/><use transform="matrix(0.05,0,0,0.05,26.950000000000003,0)" xlink:href="#aB"/><use transform="matrix(0.05,0,0,0.05,36.95,0)" xlink:href="#aG"/><use transform="matrix(0.05,0,0,0.05,40.900000000000006,0)" xlink:href="#aI"/></g><path d="M114-163C36-179 61-72 57 0H25l-1-190h30c1 12-1 29 2 39 6-27 23-49 58-41v29" id="aL"/><path d="M108 0H70L1-190h34L89-25l56-165h34" id="aM"/><path d="M96-169c-40 0-48 33-48 73s9 75 48 75c24 0 41-14 43-38l32 2c-6 37-31 61-74 61-59 0-76-41-82-99-10-93 101-131 147-64 4 7 5 14 7 22l-32 3c-4-21-16-35-41-35" id="aN"/><g id="r"><use transform="matrix(0.05,0,0,0.05,0,0)" xlink:href="#aF"/><use transform="matrix(0.05,0,0,0.05,12,0)" xlink:href="#aJ"/><use transform="matrix(0.05,0,0,0.05,22,0)" xlink:href="#aL"/><use transform="matrix(0.05,0,0,0.05,27.950000000000003,0)" xlink:href="#aM"/><use transform="matrix(0.05,0,0,0.05,36.95,0)" xlink:href="#aG"/><use transform="matrix(0.05,0,0,0.05,40.900000000000006,0)" xlink:href="#aN"/><use transform="matrix(0.05,0,0,0.05,49.900000000000006,0)" xlink:href="#aJ"/></g><g id="s"><use transform="matrix(0.05,0,0,0.05,0,0)" xlink:href="#aF"/><use transform="matrix(0.05,0,0,0.05,12,0)" xlink:href="#aG"/><use transform="matrix(0.05,0,0,0.05,15.949999999999998,0)" xlink:href="#aA"/><use transform="matrix(0.05,0,0,0.05,30.899999999999995,0)" xlink:href="#aH"/><use transform="matrix(0.05,0,0,0.05,40.9,0)" xlink:href="#aI"/><use transform="matrix(0.05,0,0,0.05,44.85,0)" xlink:href="#aJ"/></g><g id="t"><use transform="matrix(0.05,0,0,0.05,0,0)" xlink:href="#aK"/><use transform="matrix(0.05,0,0,0.05,12,0)" xlink:href="#aA"/><use transform="matrix(0.05,0,0,0.05,26.950000000000003,0)" xlink:href="#aB"/><use transform="matrix(0.05,0,0,0.05,36.95,0)" xlink:href="#aG"/><use transform="matrix(0.05,0,0,0.05,40.900000000000006,0)" xlink:href="#aI"/></g><g id="u"><use transform="matrix(0.05,0,0,0.05,0,0)" xlink:href="#aF"/><use transform="matrix(0.05,0,0,0.05,12,0)" xlink:href="#aJ"/><use transform="matrix(0.05,0,0,0.05,22,0)" xlink:href="#aL"/><use transform="matrix(0.05,0,0,0.05,27.950000000000003,0)" xlink:href="#aM"/><use transform="matrix(0.05,0,0,0.05,36.95,0)" xlink:href="#aG"/><use transform="matrix(0.05,0,0,0.05,40.900000000000006,0)" xlink:href="#aN"/><use transform="matrix(0.05,0,0,0.05,49.900000000000006,0)" xlink:href="#aJ"/></g><g id="v"><use transform="matrix(0.05,0,0,0.05,0,0)" xlink:href="#aK"/><use transform="matrix(0.05,0,0,0.05,12,0)" xlink:href="#aA"/><use transform="matrix(0.05,0,0,0.05,26.950000000000003,0)" xlink:href="#aB"/><use transform="matrix(0.05,0,0,0.05,36.95,0)" xlink:href="#aG"/><use transform="matrix(0.05,0,0,0.05,40.900000000000006,0)" xlink:href="#aI"/></g><path d="M30-248c118-7 216 8 213 122C240-48 200 0 122 0H30v-248zM63-27c89 8 146-16 146-99s-60-101-146-95v194" id="aO"/><g id="w"><use transform="matrix(0.05,0,0,0.05,0,0)" xlink:href="#aO"/><use transform="matrix(0.05,0,0,0.05,12.950000000000001,0)" xlink:href="#aD"/><use transform="matrix(0.05,0,0,0.05,22.950000000000003,0)" xlink:href="#aA"/><use transform="matrix(0.05,0,0,0.05,37.900000000000006,0)" xlink:href="#aB"/><use transform="matrix(0.05,0,0,0.05,47.900000000000006,0)" xlink:href="#aG"/><use transform="matrix(0.05,0,0,0.05,51.85,0)" xlink:href="#aE"/></g><path d="M33 0v-248h34V0H33" id="aP"/><path d="M85-194c31 0 48 13 60 33l-1-100h32l1 261h-30c-2-10 0-23-3-31C134-8 116 4 85 4 32 4 16-35 15-94c0-66 23-100 70-100zm9 24c-40 0-46 34-46 75 0 40 6 74 45 74 42 0 51-32 51-76 0-42-9-74-50-73" id="aQ"/><path d="M59-47c-2 24 18 29 38 22v24C64 9 27 4 27-40v-127H5v-23h24l9-43h21v43h35v23H59v120" id="aR"/><path d="M179-190L93 31C79 59 56 82 12 73V49c39 6 53-20 64-50L1-190h34L92-34l54-156h33" id="aS"/><g id="x"><use transform="matrix(0.05,0,0,0.05,0,0)" xlink:href="#aP"/><use transform="matrix(0.05,0,0,0.05,5,0)" xlink:href="#aQ"/><use transform="matrix(0.05,0,0,0.05,15,0)" xlink:href="#aJ"/><use transform="matrix(0.05,0,0,0.05,25,0)" xlink:href="#aE"/><use transform="matrix(0.05,0,0,0.05,35,0)" xlink:href="#aR"/><use transform="matrix(0.05,0,0,0.05,40,0)" xlink:href="#aG"/><use transform="matrix(0.05,0,0,0.05,43.95,0)" xlink:href="#aR"/><use transform="matrix(0.05,0,0,0.05,48.95,0)" xlink:href="#aS"/></g><g id="y"><use transform="matrix(0.06172839506172839,0,0,0.06172839506172839,0,0)" xlink:href="#as"/><use transform="matrix(0.06172839506172839,0,0,0.06172839506172839,11.11111111111111,0)" xlink:href="#ap"/><use transform="matrix(0.06172839506172839,0,0,0.06172839506172839,23.45679012345679,0)" xlink:href="#av"/><use transform="matrix(0.06172839506172839,0,0,0.06172839506172839,41.91358024691358,0)" xlink:href="#aq"/><use transform="matrix(0.06172839506172839,0,0,0.06172839506172839,54.25925925925926,0)" xlink:href="#ai"/><use transform="matrix(0.06172839506172839,0,0,0.06172839506172839,59.135802469135804,0)" xlink:href="#ah"/><use transform="matrix(0.06172839506172839,0,0,0.06172839506172839,71.48148148148148,0)" xlink:href="#ar"/><use transform="matrix(0.06172839506172839,0,0,0.06172839506172839,76.35802469135803,0)" xlink:href="#af"/><use transform="matrix(0.06172839506172839,0,0,0.06172839506172839,88.70370370370371,0)" xlink:href="#ao"/></g><path fill="#3a414a" d="M85-194c31 0 48 13 60 33l-1-100h32l1 261h-30c-2-10 0-23-3-31C134-8 116 4 85 4 32 4 16-35 15-94c0-66 23-100 70-100zm9 24c-40 0-46 34-46 75 0 40 6 74 45 74 42 0 51-32 51-76 0-42-9-74-50-73" id="aT"/><path fill="#3a414a" d="M179-190L93 31C79 59 56 82 12 73V49c39 6 53-20 64-50L1-190h34L92-34l54-156h33" id="aU"/><g id="z"><use transform="matrix(0.06172839506172839,0,0,0.06172839506172839,0,0)" xlink:href="#aT"/><use transform="matrix(0.06172839506172839,0,0,0.06172839506172839,12.345679012345679,0)" xlink:href="#ae"/><use transform="matrix(0.06172839506172839,0,0,0.06172839506172839,24.691358024691358,0)" xlink:href="#ai"/><use transform="matrix(0.06172839506172839,0,0,0.06172839506172839,29.5679012345679,0)" xlink:href="#ar"/><use transform="matrix(0.06172839506172839,0,0,0.06172839506172839,34.44444444444444,0)" xlink:href="#al"/><use transform="matrix(0.06172839506172839,0,0,0.06172839506172839,45.55555555555556,0)" xlink:href="#ae"/><use transform="matrix(0.06172839506172839,0,0,0.06172839506172839,57.901234567901234,0)" xlink:href="#ag"/><use transform="matrix(0.06172839506172839,0,0,0.06172839506172839,65.24691358024691,0)" xlink:href="#aU"/></g><g id="A"><use transform="matrix(0.06172839506172839,0,0,0.06172839506172839,0,0)" xlink:href="#ax"/><use transform="matrix(0.06172839506172839,0,0,0.06172839506172839,15.987654320987653,0)" xlink:href="#ap"/><use transform="matrix(0.06172839506172839,0,0,0.06172839506172839,28.333333333333332,0)" xlink:href="#ao"/><use transform="matrix(0.06172839506172839,0,0,0.06172839506172839,34.50617283950617,0)" xlink:href="#ar"/><use transform="matrix(0.06172839506172839,0,0,0.06172839506172839,39.382716049382715,0)" xlink:href="#au"/><use transform="matrix(0.06172839506172839,0,0,0.06172839506172839,45.55555555555556,0)" xlink:href="#ar"/><use transform="matrix(0.06172839506172839,0,0,0.06172839506172839,50.4320987654321,0)" xlink:href="#as"/><use transform="matrix(0.06172839506172839,0,0,0.06172839506172839,61.543209876543216,0)" xlink:href="#ah"/><use transform="matrix(0.06172839506172839,0,0,0.06172839506172839,73.8888888888889,0)" xlink:href="#ao"/><use transform="matrix(0.06172839506172839,0,0,0.06172839506172839,80.06172839506173,0)" xlink:href="#ar"/><use transform="matrix(0.06172839506172839,0,0,0.06172839506172839,84.93827160493828,0)" xlink:href="#ap"/><use transform="matrix(0.06172839506172839,0,0,0.06172839506172839,97.28395061728396,0)" xlink:href="#af"/></g><path fill="#3a414a" d="M30-248c87 1 191-15 191 75 0 78-77 80-158 76V0H30v-248zm33 125c57 0 124 11 124-50 0-59-68-47-124-48v98" id="aV"/><g id="B"><use transform="matrix(0.06172839506172839,0,0,0.06172839506172839,0,0)" xlink:href="#aV"/><use transform="matrix(0.06172839506172839,0,0,0.06172839506172839,14.814814814814813,0)" xlink:href="#ap"/><use transform="matrix(0.06172839506172839,0,0,0.06172839506172839,27.160493827160494,0)" xlink:href="#ai"/><use transform="matrix(0.06172839506172839,0,0,0.06172839506172839,32.03703703703704,0)" xlink:href="#ar"/><use transform="matrix(0.06172839506172839,0,0,0.06172839506172839,36.91358024691358,0)" xlink:href="#as"/><use transform="matrix(0.06172839506172839,0,0,0.06172839506172839,48.0246913580247,0)" xlink:href="#aU"/></g><g id="C"><use transform="matrix(0.06172839506172839,0,0,0.06172839506172839,0,0)" xlink:href="#ac"/><use transform="matrix(0.06172839506172839,0,0,0.06172839506172839,14.814814814814813,0)" xlink:href="#ae"/><use transform="matrix(0.06172839506172839,0,0,0.06172839506172839,27.160493827160494,0)" xlink:href="#af"/><use transform="matrix(0.06172839506172839,0,0,0.06172839506172839,39.50617283950617,0)" xlink:href="#aT"/><use transform="matrix(0.06172839506172839,0,0,0.06172839506172839,51.85185185185185,0)" xlink:href="#ae"/><use transform="matrix(0.06172839506172839,0,0,0.06172839506172839,64.19753086419753,0)" xlink:href="#ag"/></g><linearGradient gradientUnits="userSpaceOnUse" id="D" x1="140" y1="710" x2="200" y2="650"><stop offset="0%" stop-color="#4d27a8"/><stop offset="100%" stop-color="#a166ff"/></linearGradient><path d="M233-177c-1 41-23 64-60 70L243 0h-38l-65-103H63V0H30v-248c88 3 205-21 203 71zM63-129c60-2 137 13 137-47 0-61-80-42-137-45v92" id="aW"/><path d="M84 4C-5 8 30-112 23-190h32v120c0 31 7 50 39 49 72-2 45-101 50-169h31l1 190h-30c-1-10 1-25-2-33-11 22-28 36-60 37" id="aX"/><g id="E"><use transform="matrix(0.05,0,0,0.05,0,0)" xlink:href="#aW"/><use transform="matrix(0.05,0,0,0.05,12.950000000000001,0)" xlink:href="#aD"/><use transform="matrix(0.05,0,0,0.05,22.950000000000003,0)" xlink:href="#aX"/><use transform="matrix(0.05,0,0,0.05,32.95,0)" xlink:href="#aR"/><use transform="matrix(0.05,0,0,0.05,37.95,0)" xlink:href="#aJ"/></g><path d="M54-142c48-35 137-8 131 61C196 18 31 33 14-55l32-4c7 23 22 37 52 37 35-1 51-22 54-58 4-55-73-65-99-34H22l8-134h141v27H59" id="aY"/><path d="M126-127c33 6 58 20 58 59 0 88-139 92-164 29-3-8-5-16-6-25l32-3c6 27 21 44 54 44 32 0 52-15 52-46 0-38-36-46-79-43v-28c39 1 72-4 72-42 0-27-17-43-46-43-28 0-47 15-49 41l-32-3c6-42 35-63 81-64 48-1 79 21 79 65 0 36-21 52-52 59" id="aZ"/><g id="F"><use transform="matrix(0.05,0,0,0.05,0,0)" xlink:href="#aY"/><use transform="matrix(0.05,0,0,0.05,10,0)" xlink:href="#aZ"/></g><path d="M194 0L95-120 63-95V0H30v-248h33v124l119-124h40L117-140 236 0h-42" id="ba"/><path d="M240 0l2-218c-23 76-54 145-80 218h-23L58-218 59 0H30v-248h44l77 211c21-75 51-140 76-211h43V0h-30" id="bb"/><g id="G"><use transform="matrix(0.05,0,0,0.05,0,0)" xlink:href="#aO"/><use transform="matrix(0.05,0,0,0.05,12.950000000000001,0)" xlink:href="#ba"/><use transform="matrix(0.05,0,0,0.05,24.950000000000003,0)" xlink:href="#aP"/><use transform="matrix(0.05,0,0,0.05,29.950000000000003,0)" xlink:href="#bb"/></g><linearGradient gradientUnits="userSpaceOnUse" id="H" x1="301.12" y1="697.24" x2="299.3" y2="772.93"><stop offset="0%" stop-color="#ffd400"/><stop offset="41.5%" stop-color="#ffd000"/><stop offset="84.5%" stop-color="#ffc301"/><stop offset="100%" stop-color="#ffbd02"/></linearGradient><path d="M190 0L58-211 59 0H30v-248h39L202-35l-2-213h31V0h-41" id="bc"/><g id="I"><use transform="matrix(0.05,0,0,0.05,0,0)" xlink:href="#aO"/><use transform="matrix(0.05,0,0,0.05,12.950000000000001,0)" xlink:href="#bc"/><use transform="matrix(0.05,0,0,0.05,25.900000000000002,0)" xlink:href="#aF"/></g><path d="M135-143c-3-34-86-38-87 0 15 53 115 12 119 90S17 21 10-45l28-5c4 36 97 45 98 0-10-56-113-15-118-90-4-57 82-63 122-42 12 7 21 19 24 35" id="bd"/><g id="J"><use transform="matrix(0.05,0,0,0.05,0,0)" xlink:href="#aW"/><use transform="matrix(0.05,0,0,0.05,12.950000000000001,0)" xlink:href="#aJ"/><use transform="matrix(0.05,0,0,0.05,22.950000000000003,0)" xlink:href="#aN"/><use transform="matrix(0.05,0,0,0.05,31.950000000000003,0)" xlink:href="#aD"/><use transform="matrix(0.05,0,0,0.05,41.95,0)" xlink:href="#aL"/><use transform="matrix(0.05,0,0,0.05,47.900000000000006,0)" xlink:href="#aQ"/><use transform="matrix(0.05,0,0,0.05,57.900000000000006,0)" xlink:href="#bd"/></g><g id="K"><use transform="matrix(0.05,0,0,0.05,0,0)" xlink:href="#aW"/><use transform="matrix(0.05,0,0,0.05,12.950000000000001,0)" xlink:href="#aD"/><use transform="matrix(0.05,0,0,0.05,22.950000000000003,0)" xlink:href="#aX"/><use transform="matrix(0.05,0,0,0.05,32.95,0)" xlink:href="#aR"/><use transform="matrix(0.05,0,0,0.05,37.95,0)" xlink:href="#aJ"/></g><g id="L"><use transform="matrix(0.05,0,0,0.05,0,0)" xlink:href="#aY"/><use transform="matrix(0.05,0,0,0.05,10,0)" xlink:href="#aZ"/></g><path d="M197 0v-115H63V0H30v-248h33v105h134v-105h34V0h-34" id="be"/><g id="M"><use transform="matrix(0.05,0,0,0.05,0,0)" xlink:href="#be"/><use transform="matrix(0.05,0,0,0.05,12.950000000000001,0)" xlink:href="#aD"/><use transform="matrix(0.05,0,0,0.05,22.950000000000003,0)" xlink:href="#bd"/><use transform="matrix(0.05,0,0,0.05,31.950000000000003,0)" xlink:href="#aR"/><use transform="matrix(0.05,0,0,0.05,36.95,0)" xlink:href="#aJ"/><use transform="matrix(0.05,0,0,0.05,46.95,0)" xlink:href="#aQ"/></g><path d="M209 0H11v-25l151-195H24v-28h176v25L50-27h159V0" id="bf"/><g id="N"><use transform="matrix(0.05,0,0,0.05,0,0)" xlink:href="#bf"/><use transform="matrix(0.05,0,0,0.05,10.950000000000001,0)" xlink:href="#aD"/><use transform="matrix(0.05,0,0,0.05,20.950000000000003,0)" xlink:href="#aE"/><use transform="matrix(0.05,0,0,0.05,30.950000000000003,0)" xlink:href="#aJ"/></g><path fill="#3a414a" d="M30-248c118-7 216 8 213 122C240-48 200 0 122 0H30v-248zM63-27c89 8 146-16 146-99s-60-101-146-95v194" id="bg"/><g id="O"><use transform="matrix(0.06172839506172839,0,0,0.06172839506172839,0,0)" xlink:href="#bg"/><use transform="matrix(0.06172839506172839,0,0,0.06172839506172839,15.987654320987653,0)" xlink:href="#ap"/><use transform="matrix(0.06172839506172839,0,0,0.06172839506172839,28.333333333333332,0)" xlink:href="#av"/><use transform="matrix(0.06172839506172839,0,0,0.06172839506172839,46.79012345679012,0)" xlink:href="#ah"/><use transform="matrix(0.06172839506172839,0,0,0.06172839506172839,59.1358024691358,0)" xlink:href="#ar"/><use transform="matrix(0.06172839506172839,0,0,0.06172839506172839,64.01234567901234,0)" xlink:href="#af"/></g><path fill="#3a414a" d="M177-190C167-65 218 103 67 71c-23-6-38-20-44-43l32-5c15 47 100 32 89-28v-30C133-14 115 1 83 1 29 1 15-40 15-95c0-56 16-97 71-98 29-1 48 16 59 35 1-10 0-23 2-32h30zM94-22c36 0 50-32 50-73 0-42-14-75-50-75-39 0-46 34-46 75s6 73 46 73" id="bh"/><g id="P"><use transform="matrix(0.06172839506172839,0,0,0.06172839506172839,0,0)" xlink:href="#ag"/><use transform="matrix(0.06172839506172839,0,0,0.06172839506172839,7.345679012345679,0)" xlink:href="#ae"/><use transform="matrix(0.06172839506172839,0,0,0.06172839506172839,19.691358024691358,0)" xlink:href="#bh"/><use transform="matrix(0.06172839506172839,0,0,0.06172839506172839,32.03703703703704,0)" xlink:href="#ar"/><use transform="matrix(0.06172839506172839,0,0,0.06172839506172839,36.91358024691358,0)" xlink:href="#ak"/><use transform="matrix(0.06172839506172839,0,0,0.06172839506172839,48.0246913580247,0)" xlink:href="#ao"/><use transform="matrix(0.06172839506172839,0,0,0.06172839506172839,54.19753086419754,0)" xlink:href="#ag"/><use transform="matrix(0.06172839506172839,0,0,0.06172839506172839,61.543209876543216,0)" xlink:href="#ah"/><use transform="matrix(0.06172839506172839,0,0,0.06172839506172839,73.8888888888889,0)" xlink:href="#ao"/><use transform="matrix(0.06172839506172839,0,0,0.06172839506172839,80.06172839506173,0)" xlink:href="#ar"/><use transform="matrix(0.06172839506172839,0,0,0.06172839506172839,84.93827160493828,0)" xlink:href="#ap"/><use transform="matrix(0.06172839506172839,0,0,0.06172839506172839,97.28395061728396,0)" xlink:href="#af"/></g></defs></g></svg>